<svg width="16" height="28" viewBox="0 0 16 28" fill="none" xmlns="http://www.w3.org/2000/svg">
<path d="M12.3076 5.47826H15.3845C15.7241 5.47826 15.9998 5.20556 15.9998 4.86957V0.768783C15.9998 0.449826 15.7518 0.184435 15.4306 0.161913C14.4515 0.0931305 12.5389 0 11.1636 0C7.38454 0 4.92303 2.24 4.92303 6.31096V10.3478H0.615378C0.27569 10.3478 0 10.6205 0 10.9565V15.2174C0 15.5534 0.27569 15.8261 0.615378 15.8261H4.92303V27.3913C4.92303 27.7273 5.19872 28 5.53841 28H9.84605C10.1857 28 10.4614 27.7273 10.4614 27.3913V15.8261H14.9057C15.2195 15.8261 15.4829 15.593 15.5174 15.2843L15.9961 11.0235C16.0368 10.6631 15.7512 10.3478 15.3845 10.3478H10.4614V7.30435C10.4614 6.29574 11.2879 5.47826 12.3076 5.47826Z" fill="#3C6382"/>
</svg>
