<svg width="28" height="28" viewBox="0 0 28 28" fill="none" xmlns="http://www.w3.org/2000/svg">
<path d="M8.27273 0C3.71 0 0 3.71 0 8.27273V19.7273C0 24.29 3.71 28 8.27273 28H19.7273C24.29 28 28 24.29 28 19.7273V8.27273C28 3.71 24.29 0 19.7273 0H8.27273ZM21.6364 5.09091C22.3364 5.09091 22.9091 5.66364 22.9091 6.36364C22.9091 7.06364 22.3364 7.63636 21.6364 7.63636C20.9364 7.63636 20.3636 7.06364 20.3636 6.36364C20.3636 5.66364 20.9364 5.09091 21.6364 5.09091ZM14 7C17.8627 7 21 10.1373 21 14C21 17.8627 17.8627 21 14 21C10.1373 21 7 17.8627 7 14C7 10.1373 10.1373 7 14 7ZM14 8.27273C10.8436 8.27273 8.27273 10.8436 8.27273 14C8.27273 17.1564 10.8436 19.7273 14 19.7273C17.1564 19.7273 19.7273 17.1564 19.7273 14C19.7273 10.8436 17.1564 8.27273 14 8.27273Z" fill="#3C6382"/>
</svg>
