<svg width="25" height="25" viewBox="0 0 25 25" fill="none" xmlns="http://www.w3.org/2000/svg">
<path d="M12.5 0C5.59644 0 0 5.59644 0 12.5C0 19.4036 5.59644 25 12.5 25C19.4036 25 25 19.4036 25 12.5C24.992 5.59977 19.4002 0.00803621 12.5 0Z" fill="#F8B053" fill-opacity="0.23"/>
<path d="M19.7157 8.54202L12.5855 18.2181C12.4155 18.4437 12.1619 18.5915 11.8818 18.6283C11.6017 18.6652 11.3185 18.5879 11.0959 18.4139L6.00425 14.3431C5.55494 13.9835 5.48219 13.3278 5.84175 12.8785C6.20131 12.4292 6.85703 12.3564 7.30633 12.716L11.5522 16.1129L18.0386 7.30973C18.2513 6.99055 18.6222 6.81409 19.0041 6.85039C19.3859 6.8867 19.7169 7.12991 19.8656 7.48345C20.0143 7.837 19.9568 8.24367 19.7157 8.54202Z" fill="#F8B053"/>
</svg>
