<svg width="38" height="42" viewBox="0 0 38 42" fill="none" xmlns="http://www.w3.org/2000/svg">
<path d="M37.6122 21.0645C37.6097 21.0318 37.6078 21 37.6078 20.967C37.6078 17.3375 34.673 14.3844 31.0659 14.3844C29.4428 14.3844 27.8831 14.9805 26.6758 16.0625C26.5289 16.194 20.7168 22.264 18.9417 24.1191C18.8842 24.1777 18.8387 24.2176 18.8035 24.2422C18.7698 24.2176 18.7237 24.1784 18.6669 24.1198L10.7514 15.9511C10.3341 15.5195 9.77348 15.2824 9.17113 15.2824C8.5981 15.2824 8.05327 15.5023 7.64035 15.9016C7.21937 16.3105 6.98085 16.8598 6.97169 17.4467C6.96363 18.0344 7.18236 18.5895 7.59162 19.0119L15.506 27.1821C16.4513 28.1571 17.5912 28.6707 18.8021 28.6707C20.0148 28.6707 21.1539 28.1556 22.0974 27.181C22.0974 27.181 29.5278 19.6275 29.6517 19.5406C30.0257 19.1376 30.5552 18.8822 31.1473 18.8822C32.279 18.8822 33.2265 19.7986 33.2265 20.9296C33.2265 20.9846 33.2225 21.6034 33.2265 21.8654L33.2075 28.3589C33.2075 28.8327 32.9536 29.2742 32.5428 29.5105L19.4678 37.0607C19.0659 37.2926 18.5397 37.2926 18.1378 37.0607L5.06206 29.5105C4.6517 29.2738 4.39779 28.8327 4.39779 28.3586L4.39852 13.2603C4.39852 12.7859 4.6517 12.3455 5.06279 12.1091L18.1386 4.56001C18.5419 4.32662 19.0674 4.32772 19.4755 4.56404L29.3802 10.2321C29.7125 10.4226 30.0902 10.5223 30.4716 10.5223C31.2579 10.5223 31.9907 10.0987 32.382 9.41542C32.6736 8.90614 32.7495 8.31259 32.5952 7.74615C32.4417 7.17934 32.0753 6.70706 31.5646 6.41541L21.668 0.75101C19.9339 -0.250337 17.6736 -0.250337 15.9391 0.75101L2.86335 8.2994C1.09624 9.31943 0 11.2199 0 13.2607V28.3589C0 30.4005 1.09624 32.3006 2.86335 33.3221L15.9391 40.8712C16.8042 41.3713 17.7941 41.6347 18.8021 41.6347C19.8086 41.6347 20.7985 41.3698 21.6654 40.8697L34.7419 33.321C36.5083 32.3002 37.6056 30.3994 37.6056 28.3586V21.377C37.6251 21.2594 37.6181 21.1517 37.6122 21.0645Z" fill="#2B3546"/>
</svg>
