<svg width="85" height="86" viewBox="0 0 85 86" fill="none" xmlns="http://www.w3.org/2000/svg">
<path d="M58.9992 83.9972H32.8473C32.6536 84.0099 32.4594 83.9826 32.2766 83.9172C32.0939 83.8517 31.9266 83.7495 31.7849 83.6168C31.6433 83.4841 31.5303 83.3237 31.4532 83.1456C31.376 82.9676 31.3362 82.7755 31.3362 82.5814C31.3362 82.3873 31.376 82.1953 31.4532 82.0172C31.5303 81.8391 31.6433 81.6788 31.7849 81.546C31.9266 81.4133 32.0939 81.3111 32.2766 81.2457C32.4594 81.1802 32.6536 81.153 32.8473 81.1656H58.9871C59.3467 81.189 59.6839 81.3484 59.9302 81.6113C60.1766 81.8743 60.3136 82.2211 60.3136 82.5814C60.3136 82.9417 60.1766 83.2885 59.9302 83.5515C59.6839 83.8144 59.3467 83.9738 58.9871 83.9972H58.9992Z" fill="#72727F"/>
<path d="M52.6865 75.7488C52.3118 75.7488 51.9524 75.6 51.6874 75.335C51.4225 75.0701 51.2737 74.7107 51.2737 74.3361C51.2737 73.9614 51.4225 73.602 51.6874 73.337C51.9524 73.0721 52.3118 72.9232 52.6865 72.9232L79.6019 72.8691C79.9766 72.8691 80.3359 73.018 80.6008 73.2829C80.8658 73.5479 81.0147 73.9072 81.0147 74.2819C81.0147 74.6566 80.8658 75.016 80.6008 75.2809C80.3359 75.5459 79.9766 75.6948 79.6019 75.6948L52.6865 75.7488Z" fill="#72727F"/>
<path d="M10.934 30.154C10.207 29.9885 9.44584 30.0642 8.76568 30.3697C8.08553 30.6751 7.52333 31.1937 7.16407 31.8471C6.8048 32.5004 6.668 33.253 6.77438 33.9909C6.88075 34.7289 7.22451 35.4122 7.75366 35.9374C7.75366 35.9374 7.75363 35.9375 7.79571 35.9675L14.2706 42.4363L24.4908 32.2161L10.94 30.0999C10.94 30.0999 10.94 30.142 10.934 30.154Z" fill="#E5AD58"/>
<path d="M14.2467 43.3262C14.1348 43.3259 14.024 43.3034 13.9208 43.2601C13.8176 43.2167 13.7241 43.1534 13.6455 43.0737L7.17665 36.6048C7.14311 36.5718 7.11289 36.5356 7.08646 36.4966C6.46417 35.8516 6.05971 35.0278 5.92994 34.141C5.80018 33.2542 5.95161 32.349 6.363 31.5528C6.7744 30.7566 7.42502 30.1093 8.22338 29.702C9.02175 29.2947 9.92771 29.148 10.8138 29.2823C10.9016 29.2703 10.9906 29.2703 11.0784 29.2823L24.5811 31.4286C24.7381 31.4565 24.8841 31.5275 25.0031 31.6337C25.122 31.7399 25.209 31.877 25.2545 32.0298C25.3039 32.1793 25.3104 32.3397 25.2732 32.4927C25.236 32.6458 25.1566 32.7853 25.0441 32.8955L14.8238 43.1158C14.6642 43.2551 14.4585 43.3301 14.2467 43.3262ZM8.5173 35.5107L14.2467 41.24L22.6634 32.8233L11.0964 30.9837C10.9834 31.0077 10.8667 31.0077 10.7537 30.9837C10.3272 30.8836 9.88217 30.8947 9.46114 31.0157C9.04011 31.1368 8.65719 31.3638 8.34895 31.6751C7.8724 32.1515 7.60072 32.7951 7.59173 33.4689C7.58275 34.1426 7.8372 34.7933 8.30088 35.2822C8.33956 35.3112 8.37571 35.3434 8.40905 35.3784C8.44891 35.4193 8.48515 35.4635 8.5173 35.5107Z" fill="#72727F"/>
<path d="M46.2186 65.6965H46.2847L44.2407 52.7769L34.0925 62.925L40.3089 69.1353L40.3449 69.0992C40.4351 69.2074 40.5073 69.3217 40.6035 69.4239C41.165 69.9859 41.9039 70.3362 42.6945 70.4151C43.485 70.4941 44.2785 70.2968 44.9401 69.857C45.6017 69.4171 46.0906 68.7617 46.3237 68.0021C46.5568 67.2426 46.5196 66.4257 46.2186 65.6905V65.6965Z" fill="#E5AD58"/>
<path d="M43.0323 71.2878C42.4733 71.286 41.9201 71.1741 41.4044 70.9586C40.8886 70.743 40.4203 70.4279 40.0263 70.0313C39.9722 69.9772 39.9301 69.9231 39.882 69.869C39.826 69.8343 39.7737 69.794 39.7257 69.7488L33.5154 63.5324C33.4362 63.4536 33.3732 63.36 33.3303 63.2568C33.2874 63.1536 33.2654 63.043 33.2654 62.9312C33.2654 62.8195 33.2874 62.7088 33.3303 62.6057C33.3732 62.5025 33.4362 62.4088 33.5154 62.33L43.6696 52.1819C43.7805 52.0705 43.9201 51.9919 44.0728 51.9548C44.2256 51.9177 44.3856 51.9235 44.5352 51.9715C44.6881 52.0186 44.8251 52.107 44.9312 52.2268C45.0372 52.3466 45.1082 52.4933 45.1364 52.6508L47.1805 65.5705C47.1865 65.6244 47.1865 65.6788 47.1805 65.7328C47.378 66.3746 47.4222 67.0538 47.3094 67.7158C47.1967 68.3778 46.9303 69.0041 46.5315 69.5444C46.1328 70.0847 45.6127 70.5239 45.0134 70.8267C44.414 71.1295 43.7519 71.2874 43.0804 71.2878H43.0323ZM40.6877 68.3239C40.8161 68.3812 40.9293 68.4676 41.0183 68.5764L41.1145 68.7027C41.1432 68.7473 41.1753 68.7895 41.2107 68.8289C41.4471 69.0666 41.7282 69.2554 42.0376 69.3844C42.3471 69.5133 42.679 69.5799 43.0143 69.5804C43.4396 69.5825 43.8589 69.4796 44.2349 69.2808C44.611 69.082 44.9321 68.7936 45.17 68.441C45.4078 68.0883 45.555 67.6825 45.5985 67.2594C45.6419 66.8362 45.5803 66.4089 45.4191 66.0153C45.3545 65.853 45.3398 65.6751 45.3769 65.5043L43.6696 54.5687L35.307 62.9312L40.6877 68.3239Z" fill="#72727F"/>
<path d="M35.3374 44.0356L32.5058 41.204C32.2773 40.9741 32.0056 40.7914 31.7064 40.6666C31.4073 40.5418 31.0865 40.4772 30.7623 40.4766C30.1091 40.4795 29.4831 40.7386 29.0188 41.198L23.8125 46.4043L23.025 47.1979C22.7961 47.4263 22.6145 47.6976 22.4906 47.9962C22.3667 48.2949 22.303 48.615 22.303 48.9383C22.303 49.2617 22.3667 49.5818 22.4906 49.8805C22.6145 50.1791 22.7961 50.4504 23.025 50.6788L25.8566 53.5104C26.3186 53.9711 26.9445 54.2299 27.597 54.2299C28.2495 54.2299 28.8754 53.9711 29.3375 53.5104L35.3494 47.4985C35.5783 47.2701 35.7598 46.9988 35.8837 46.7002C36.0076 46.4015 36.0713 46.0814 36.0713 45.758C36.0713 45.4347 36.0076 45.1146 35.8837 44.8159C35.7598 44.5173 35.5783 44.246 35.3494 44.0176L35.3374 44.0356Z" fill="#E5AD58"/>
<path d="M60.7434 34.9997V35.0297L68.096 12.96C68.2037 12.728 68.2825 12.4837 68.3305 12.2325C68.4417 11.6855 68.4129 11.1192 68.2467 10.5863C68.0806 10.0533 67.7824 9.57105 67.38 9.18419C66.9775 8.79733 66.4838 8.51845 65.9447 8.37346C65.4056 8.22847 64.8387 8.22205 64.2965 8.35482H64.2544C64.0951 8.3999 63.9385 8.45411 63.7854 8.51715L42.2808 15.6052C41.5082 15.7463 40.7937 16.1099 40.2247 16.6513L25.0326 31.9035L14.0608 42.8753L12.2092 44.733C11.8218 45.1189 11.5145 45.5776 11.3048 46.0826C11.095 46.5876 10.9871 47.129 10.9871 47.6758C10.9871 48.2226 11.095 48.7641 11.3048 49.2691C11.5145 49.7741 11.8218 50.2327 12.2092 50.6187L14.7281 53.1377L14.0909 54.3761L22.1168 62.408L23.3613 61.7708L25.9524 64.3619C26.3388 64.7486 26.7975 65.0553 27.3025 65.2645C27.8074 65.4738 28.3487 65.5815 28.8953 65.5815C29.4419 65.5815 29.9831 65.4738 30.488 65.2645C30.993 65.0553 31.4517 64.7486 31.8381 64.3619L33.6898 62.5042L44.6075 51.5866L59.9018 36.2802C60.2593 35.9093 60.5447 35.475 60.7434 34.9997ZM30.0826 54.2799C29.4165 54.9448 28.5138 55.3182 27.5726 55.3182C26.6315 55.3182 25.7288 54.9448 25.0627 54.2799L22.231 51.4483C21.5662 50.7822 21.1928 49.8795 21.1928 48.9383C21.1928 47.9972 21.5662 47.0945 22.231 46.4283L23.0186 45.6408L28.2309 40.4284C28.897 39.7636 29.7998 39.3902 30.7409 39.3902C31.6821 39.3902 32.5848 39.7636 33.2509 40.4284L36.0825 43.2601C36.7474 43.9262 37.1208 44.8289 37.1208 45.77C37.1208 46.7112 36.7474 47.6139 36.0825 48.28L30.0826 54.2799ZM40.8259 35.691C39.9294 34.7984 39.3179 33.6598 39.069 32.4193C38.8202 31.1789 38.9451 29.8925 39.428 28.7231C39.9108 27.5537 40.7299 26.554 41.7814 25.8505C42.833 25.1471 44.0697 24.7715 45.3349 24.7715C46.6 24.7715 47.8367 25.1471 48.8882 25.8505C49.9398 26.554 50.7589 27.5537 51.2418 28.7231C51.7246 29.8925 51.8495 31.1789 51.6006 32.4193C51.3518 33.6598 50.7404 34.7984 49.8438 35.691C48.6472 36.8761 47.0311 37.541 45.3469 37.541C43.6627 37.541 42.0467 36.8761 40.85 35.691H40.8259Z" fill="#F1CF99"/>
<path d="M28.8746 66.851C27.4305 66.8537 26.0443 66.2828 25.021 65.2638L23.0912 63.328L22.6763 63.5384C22.4357 63.6608 22.1625 63.7041 21.8958 63.662C21.6291 63.6199 21.3826 63.4946 21.1914 63.3039L13.1655 55.278C12.9748 55.0868 12.8495 54.8403 12.8074 54.5736C12.7653 54.3069 12.8085 54.0337 12.931 53.7931L13.1414 53.3782L11.2777 51.5145C10.2601 50.4926 9.68872 49.1091 9.68872 47.6669C9.68872 46.2247 10.2601 44.8412 11.2777 43.8193L39.3594 15.7376C40.0851 15.0396 40.9941 14.5622 41.9806 14.3609L63.3771 7.31488C63.5718 7.23258 63.7728 7.16622 63.9783 7.11648H64.1225C64.873 6.94417 65.6548 6.9633 66.396 7.17213C67.1372 7.38095 67.8139 7.77277 68.3641 8.31154C68.9142 8.85032 69.3201 9.51877 69.5443 10.2554C69.7686 10.9921 69.8041 11.7733 69.6475 12.5272C69.6501 12.5532 69.6501 12.5794 69.6475 12.6054C69.5843 12.9051 69.4896 13.1973 69.3649 13.4771L62.0364 35.4867C61.9832 35.6346 61.906 35.7728 61.808 35.8956C61.5604 36.3906 61.2356 36.8431 60.846 37.2362L32.7643 65.3179C32.2501 65.8187 31.6413 66.2121 30.9735 66.4753C30.3057 66.7385 29.5923 66.8662 28.8746 66.851ZM23.3377 60.4903C23.5051 60.4899 23.671 60.5226 23.8258 60.5865C23.9805 60.6505 24.1212 60.7445 24.2395 60.8631L26.8306 63.4542C27.3715 63.9939 28.1045 64.297 28.8686 64.297C29.6327 64.297 30.3657 63.9939 30.9067 63.4542L58.9883 35.3785C59.2452 35.122 59.4495 34.8177 59.5895 34.4828L59.6797 34.3204L66.9301 12.5573L66.9842 12.431C67.0502 12.2871 67.0987 12.1357 67.1285 11.9801C67.1285 11.9801 67.1285 11.9441 67.1285 11.926C67.1854 11.6021 67.1638 11.2693 67.0655 10.9554C66.9671 10.6416 66.7949 10.356 66.5633 10.1224C66.3172 9.8732 66.0102 9.69268 65.6727 9.59882C65.3352 9.50496 64.979 9.50102 64.6396 9.58739H64.5674L64.3149 9.67757L64.2187 9.71364L42.7201 16.7957L42.5938 16.8318C42.0595 16.9194 41.5634 17.1643 41.169 17.5352L13.0873 45.6168C12.8184 45.8834 12.6054 46.201 12.4609 46.551C12.3163 46.9009 12.2432 47.2763 12.2456 47.6549C12.2448 48.0347 12.3193 48.4109 12.4648 48.7618C12.6103 49.1126 12.824 49.4312 13.0933 49.6989L15.6123 52.2179C15.8029 52.4091 15.9283 52.6557 15.9704 52.9224C16.0125 53.1891 15.9692 53.4623 15.8468 53.7029L15.6364 54.1177L22.3457 60.827L22.7605 60.6166C22.9402 60.5295 23.138 60.4862 23.3377 60.4903ZM27.6001 56.6006C26.9659 56.6019 26.3377 56.4778 25.7516 56.2353C25.1656 55.9928 24.6332 55.6368 24.1853 55.1878L21.3537 52.3562C20.9029 51.9091 20.5451 51.3772 20.301 50.7911C20.0568 50.205 19.9311 49.5764 19.9311 48.9414C19.9311 48.3065 20.0568 47.6779 20.301 47.0918C20.5451 46.5057 20.9029 45.9738 21.3537 45.5267L27.3656 39.5147C27.8135 39.0657 28.3458 38.7097 28.9319 38.4673C29.5179 38.2248 30.1462 38.1006 30.7804 38.1019C31.4147 38.1006 32.0429 38.2248 32.6289 38.4673C33.215 38.7097 33.7472 39.0657 34.1952 39.5147L37.0268 42.3464C37.4775 42.7935 37.8354 43.3254 38.0796 43.9115C38.3237 44.4976 38.4494 45.1262 38.4494 45.7611C38.4494 46.396 38.3237 47.0247 38.0796 47.6108C37.8354 48.1969 37.4775 48.7288 37.0268 49.1759L31.0148 55.1878C30.5674 55.6379 30.0353 55.995 29.4492 56.2385C28.8632 56.482 28.2347 56.6071 27.6001 56.6066V56.6006ZM30.7624 40.669C30.4638 40.6675 30.168 40.7257 29.8923 40.8403C29.6166 40.955 29.3666 41.1236 29.1572 41.3364L23.1452 47.3483C22.7201 47.7743 22.4814 48.3516 22.4814 48.9535C22.4814 49.5553 22.7201 50.1326 23.1452 50.5586L25.9709 53.3903C26.3992 53.8154 26.9786 54.0532 27.582 54.0516C27.88 54.0529 28.1754 53.9951 28.4509 53.8816C28.7264 53.7681 28.9767 53.6011 29.1873 53.3903L35.1992 47.3783C35.6243 46.9523 35.863 46.375 35.863 45.7732C35.863 45.1713 35.6243 44.594 35.1992 44.168L32.3675 41.3364C31.9398 40.9096 31.3605 40.6697 30.7564 40.669H30.7624ZM45.3653 38.8354C43.3324 38.8354 41.3827 38.0278 39.9452 36.5903C38.5077 35.1528 37.7001 33.2031 37.7001 31.1702C37.7001 29.1373 38.5077 27.1876 39.9452 25.7501C41.3827 24.3126 43.3324 23.505 45.3653 23.505C47.3982 23.505 49.3479 24.3126 50.7854 25.7501C52.2229 27.1876 53.0305 29.1373 53.0305 31.1702C53.0305 33.2031 52.2229 35.1528 50.7854 36.5903C49.3479 38.0278 47.3982 38.8354 45.3653 38.8354ZM45.3653 26.0601C44.01 26.0601 42.7102 26.5984 41.7519 27.5568C40.7936 28.5151 40.2552 29.8149 40.2552 31.1702C40.2552 32.5255 40.7936 33.8253 41.7519 34.7836C42.7102 35.7419 44.01 36.2803 45.3653 36.2803C46.7206 36.2803 48.0204 35.7419 48.9788 34.7836C49.9371 33.8253 50.4754 32.5255 50.4754 31.1702C50.4754 29.8149 49.9371 28.5151 48.9788 27.5568C48.0204 26.5984 46.7206 26.0601 45.3653 26.0601Z" fill="#72727F"/>
</svg>
