<svg width="86" height="86" viewBox="0 0 86 86" fill="none" xmlns="http://www.w3.org/2000/svg">
<path d="M67.6456 54.8364C66.2011 52.3808 64.7566 49.9312 63.3422 47.4575C63.0714 46.982 62.8307 46.8978 62.3432 47.1325C60.3891 48.0955 58.423 49.0324 56.4449 49.9432C55.9754 50.1599 55.843 50.3765 56.0476 50.9002C58.1361 56.3651 60.1945 61.8361 62.2649 67.301C63.264 69.9432 64.2571 72.5854 65.2743 75.2156C65.7655 76.6094 66.7416 77.7801 68.0245 78.5138C69.3074 79.2476 70.8114 79.4953 72.2619 79.212C73.6536 78.9586 74.9174 78.2388 75.8452 77.171C76.7729 76.1032 77.3092 74.7512 77.3657 73.3377C77.3978 72.0591 77.0433 70.8005 76.3486 69.7265C75.6565 68.5589 74.9583 67.3853 74.2902 66.1996L67.6456 54.8364ZM76.794 64.7311C77.8811 66.4427 78.858 68.2218 79.719 70.0576C82.0483 75.679 77.5463 82.1731 71.4434 82.2153C59.5264 82.2995 47.6095 82.4059 35.6925 82.5343C29.2526 82.6005 22.8126 82.7329 16.3726 82.8171C11.7563 82.8833 7.61547 78.7666 7.54325 74.1322C7.49892 72.3193 7.95277 70.529 8.85535 68.9561C13.4115 60.9152 17.9194 52.8562 22.4876 44.8213C22.7644 44.3338 23.3723 44.0389 23.9682 43.5333C23.8298 42.2393 23.6973 40.7106 23.4987 39.1939C23.252 37.7723 23.365 36.3116 23.8276 34.9449C24.2901 33.5782 25.0875 32.3491 26.1469 31.3696C26.4762 31.049 26.7132 30.6457 26.8331 30.202C27.6762 26.8767 29.4806 23.8735 32.0207 21.5678C34.5609 19.2621 37.7242 17.756 41.1153 17.2378C44.6828 16.7162 48.324 17.3308 51.5227 18.9944C54.7213 20.658 57.3152 23.2862 58.9366 26.5065C59.4662 27.5658 59.8033 28.7154 60.2727 29.8048C60.4586 30.3011 60.7386 30.7568 61.0973 31.1469C62.1322 32.0823 62.9215 33.2575 63.3959 34.5693C63.8702 35.8811 64.0151 37.2894 63.8177 38.6703C63.6492 40.0967 63.559 41.5291 63.4807 42.9676C63.4807 43.1662 63.7154 43.4129 63.896 43.5694C64.2089 43.8643 64.6724 44.0509 64.877 44.4C66.6826 47.4093 68.428 50.4187 70.1735 53.428L76.794 64.7311ZM64.1548 79.3504C63.5315 78.2919 62.9649 77.201 62.4575 76.0822C61.0672 72.5553 59.7552 69.0043 58.4371 65.4473C58.3831 65.2487 58.268 65.0721 58.1081 64.9424C57.9483 64.8128 57.7517 64.7368 57.5462 64.725C56.0295 64.4903 54.537 64.2074 53.0022 63.9787C52.7649 63.9753 52.535 64.0612 52.3582 64.2195C47.2423 68.4325 40.7241 68.5288 35.5059 64.4421C35.2794 64.2684 34.9957 64.1868 34.7115 64.2135C33.2249 64.4542 31.7443 64.7611 30.2577 65.0139C30.0626 65.0272 29.8766 65.1011 29.7256 65.2251C29.5745 65.3492 29.466 65.5174 29.415 65.7061C28.9697 67.0182 28.4882 68.3182 28.0127 69.6242C27.0076 72.3627 26.0206 75.1132 24.9673 77.8397C24.62 78.5272 24.2174 79.1854 23.7636 79.8078L64.1548 79.3504ZM24.546 47.2469C24.4256 47.4154 24.3474 47.5056 24.2872 47.608L19.6709 55.8235C17.3657 59.9222 15.0485 64.0148 12.7554 68.1196C12.0257 69.2955 11.3898 70.5271 10.8535 71.803C10.4167 73.0413 10.3998 74.3891 10.8056 75.638C11.2114 76.8868 12.0172 77.9673 13.0985 78.7124C14.1493 79.462 15.4039 79.873 16.6946 79.8902C17.9853 79.9074 19.2504 79.5301 20.3208 78.8087C21.988 77.6832 22.602 75.9498 23.2279 74.1924C25.0014 69.229 26.7849 64.2676 28.5785 59.3082C29.5475 56.6059 30.5045 53.8914 31.4915 51.2011C31.6901 50.6534 31.6179 50.3585 31.0281 50.1478C30.3299 49.9011 29.6678 49.546 28.9938 49.245L24.546 47.2469ZM43.6612 57.2138C45.3847 57.2209 47.0891 56.8532 48.6563 56.1361C50.2235 55.419 51.616 54.3697 52.7373 53.0609C53.2309 52.5011 53.5258 51.9595 53.0865 51.2192C52.9118 50.8653 52.7746 50.4941 52.6772 50.1117C52.5276 49.7909 52.5067 49.4249 52.6186 49.0891C52.7306 48.7533 52.9669 48.4731 53.279 48.3061C53.7003 48.0473 53.6883 47.8006 53.58 47.3913C53.1116 45.7188 52.9585 43.9738 53.1286 42.2454C53.2068 41.5051 53.2911 40.7648 53.3513 40.0245C53.4114 39.2842 53.0082 38.5318 52.4665 38.4476C47.8381 37.7173 43.481 35.7898 39.8273 32.8562C39.6709 32.7298 39.388 32.5673 39.2255 32.6275C38.1602 33.091 37.119 33.5905 36.0777 34.1081C35.9513 34.1683 35.8731 34.379 35.8189 34.5355C35.2772 36.1063 34.7295 37.6712 34.23 39.248C34.097 39.6636 34.05 40.1018 34.0915 40.536C34.3624 42.9435 34.6092 45.351 33.899 47.7584C33.8448 47.933 34.0554 48.282 34.236 48.4205C34.5605 48.6113 34.8021 48.9164 34.9134 49.276C35.0247 49.6355 34.9978 50.0238 34.8379 50.3645C34.719 50.7945 34.5681 51.215 34.3865 51.6224C34.2676 51.838 34.2267 52.088 34.2706 52.3302C34.3144 52.5725 34.4404 52.7922 34.6272 52.9525C35.7267 54.2853 37.1073 55.3585 38.6702 56.0952C40.2331 56.8319 41.9395 57.2139 43.6673 57.2138H43.6612ZM56.4569 28.3242C55.1569 24.4843 49.9206 19.7957 43.2159 19.9883C36.5111 20.1809 31.7082 25.1403 30.7211 28.5469C31.5805 28.5294 32.4312 28.7214 33.1998 29.1062C33.9685 29.4911 34.6318 30.0572 35.1328 30.7557C35.223 30.8821 35.6082 30.8941 35.8068 30.8219C36.9203 30.4187 38.0157 29.9673 39.1292 29.546C39.4428 29.4247 39.7851 29.3983 40.1137 29.47C40.4422 29.5417 40.7424 29.7083 40.9769 29.9492C43.1762 31.8822 45.7176 33.3867 48.4701 34.385C49.4753 34.7461 50.5105 34.9868 51.642 35.348C50.4804 31.2553 53.1587 28.4927 56.4629 28.3543L56.4569 28.3242ZM31.1003 46.982C31.513 45.5764 31.6157 44.0978 31.4012 42.6486C31.1063 40.6624 31.022 38.7305 31.9669 36.8586C32.3443 36.0247 32.6523 35.1611 32.8878 34.2766C33.0545 33.8307 33.059 33.3403 32.9006 32.8914C32.7421 32.4424 32.4308 32.0635 32.0212 31.821C31.6243 31.5837 31.1569 31.4923 30.6999 31.5626C30.2428 31.633 29.8246 31.8606 29.5174 32.2062C28.9155 32.8081 28.3136 33.4099 27.7118 34.0118C27.223 34.5088 26.8469 35.1053 26.6091 35.7606C26.3712 36.4159 26.2772 37.1147 26.3335 37.8096C26.502 40.1027 26.7729 42.3898 27.0256 44.6769C27.0333 44.7934 27.065 44.9071 27.1189 45.0107C27.1728 45.1143 27.2476 45.2056 27.3386 45.2787C28.5725 45.8746 29.7882 46.4042 31.1063 47.0001L31.1003 46.982ZM56.2041 46.6209L56.5111 46.7052C57.5102 46.2297 58.4912 45.694 59.5204 45.2968C59.8005 45.2105 60.0441 45.0337 60.2129 44.794C60.3817 44.5544 60.4663 44.2655 60.4533 43.9727C60.5917 41.9504 60.7843 39.9282 60.9408 37.9059C61.0211 37.2682 60.9748 36.621 60.8044 36.0013C60.634 35.3815 60.3429 34.8016 59.9478 34.2947C59.1714 33.3959 58.3284 32.557 57.4259 31.7849C57.1028 31.5262 56.7056 31.3774 56.2921 31.36C55.8786 31.3427 55.4704 31.4578 55.1268 31.6886C54.7956 31.9118 54.5381 32.2282 54.387 32.5979C54.236 32.9676 54.1981 33.3738 54.2782 33.765C54.3592 34.1005 54.4679 34.4286 54.6032 34.7461C55.5481 37.1536 56.7218 39.5249 56.0356 42.2454C55.9806 42.4635 55.9583 42.6887 55.9694 42.9134C56.0777 44.1533 56.1319 45.3931 56.2101 46.639L56.2041 46.6209ZM50.1253 62.1972C49.6317 61.2282 49.1442 60.2712 48.7109 59.4106C47.1211 59.725 45.5128 59.9381 43.896 60.0485C42.2816 59.9711 40.6736 59.7942 39.081 59.5189L37.7268 62.3416C41.1033 65.3871 47.0497 65.1524 50.1313 62.2153L50.1253 62.1972ZM54.6393 55.354C53.8388 56.0341 53.1467 56.666 52.4124 57.2378C51.4434 57.9902 51.3591 58.255 51.9068 59.3865C52.6772 60.9634 54.7656 61.8782 56.9625 61.5412C56.1981 59.4948 55.4337 57.4786 54.6453 55.3721L54.6393 55.354ZM33.0082 55.6128L30.7512 61.9805C32.1656 61.7097 33.4656 61.7398 34.5851 61.0055C35.0004 60.741 35.3522 60.388 35.6154 59.9719C35.8786 59.5558 36.0467 59.0866 36.1078 58.598C36.1237 58.4711 36.1126 58.3422 36.0753 58.2198C36.038 58.0974 35.9752 57.9843 35.8911 57.8878C35.0124 57.1295 34.0434 56.4253 33.0143 55.6309L33.0082 55.6128Z" fill="#72727F"/>
<path d="M20.3272 15.7571C19.0513 14.3788 17.9198 13.1931 16.8365 11.9954C16.5699 11.7679 16.3919 11.4539 16.3336 11.1084C16.2752 10.7629 16.3403 10.4079 16.5175 10.1055C16.6234 9.91439 16.7714 9.74991 16.9503 9.62455C17.1293 9.49919 17.3345 9.41625 17.5503 9.38202C17.7661 9.3478 17.9869 9.36315 18.1959 9.42699C18.4049 9.49082 18.5965 9.60143 18.7564 9.7504C20.6944 11.7566 22.6023 13.803 24.4801 15.8894C24.6616 16.0784 24.7878 16.3136 24.8449 16.5693C24.902 16.825 24.8879 17.0914 24.8041 17.3396C24.7204 17.5879 24.5701 17.8084 24.3697 17.9772C24.1693 18.1459 23.9265 18.2565 23.6676 18.2969C22.8491 18.4835 22.0185 18.5798 21.0495 18.7483C21.4347 19.2358 21.7537 19.6571 22.0847 20.0664C22.9574 21.1498 23.8361 22.2211 24.7028 23.3044C24.9921 23.5993 25.1542 23.9958 25.1542 24.4089C25.1542 24.8219 24.9921 25.2185 24.7028 25.5133C24.54 25.6492 24.3501 25.7488 24.1458 25.8056C23.9414 25.8623 23.7274 25.8749 23.5178 25.8425C23.3083 25.81 23.108 25.7333 22.9304 25.6173C22.7529 25.5014 22.602 25.349 22.4879 25.1702C20.6823 22.9975 18.8768 20.8187 17.1314 18.6159C16.2647 17.5386 16.7823 16.2987 18.1485 16.076C18.7624 15.9376 19.4305 15.8714 20.3272 15.7571Z" fill="#72727F"/>
<path d="M12.0629 28.5465C10.4138 27.7701 8.92117 27.1141 7.4767 26.3678C7.06523 26.1212 6.74275 25.7503 6.55582 25.3085C6.44643 25.0515 6.42989 24.7644 6.50895 24.4964C6.58801 24.2285 6.75773 23.9964 6.98915 23.8399C7.24895 23.6514 7.55799 23.5425 7.87858 23.5265C8.19916 23.5105 8.51744 23.588 8.79475 23.7496L13.8986 26.1571C14.5486 26.4641 15.2107 26.759 15.8426 27.084C16.1086 27.1956 16.3363 27.3821 16.4981 27.6208C16.6599 27.8595 16.7487 28.1402 16.7538 28.4285C16.7589 28.7168 16.68 29.0005 16.5268 29.2448C16.3736 29.4891 16.1526 29.6835 15.8908 29.8044C15.2468 30.2016 14.5908 30.5808 13.8083 31.0503L16.2158 32.3804C17.1427 32.898 18.0816 33.3976 18.9964 33.9453C19.1844 34.0282 19.3528 34.1499 19.4904 34.3025C19.628 34.4551 19.7316 34.6351 19.7947 34.8306C19.8578 35.0262 19.8789 35.2329 19.8565 35.4371C19.834 35.6413 19.7686 35.8385 19.6645 36.0157C19.5549 36.1894 19.4112 36.3392 19.2422 36.456C19.0731 36.5728 18.8822 36.6541 18.6809 36.6952C18.4796 36.7362 18.272 36.7361 18.0708 36.6948C17.8695 36.6536 17.6787 36.572 17.5098 36.455C15.1024 35.1229 12.6768 33.7827 10.2332 32.4346C8.98735 31.7304 8.98137 30.4244 10.1971 29.672C10.7509 29.3109 11.3226 28.9859 12.0629 28.5465Z" fill="#72727F"/>
<path d="M65.9178 18.3752C65.1173 18.2608 64.4673 18.1645 63.8173 18.0802C63.1672 17.996 62.4631 17.8515 62.1802 17.1233C62.0681 16.792 62.0581 16.4348 62.1515 16.0978C62.2448 15.7609 62.4373 15.4598 62.7038 15.2334C64.389 13.3857 66.0502 11.5199 67.7294 9.66617C68.4396 8.88977 69.2943 8.78743 69.9443 9.38328C70.0986 9.52795 70.2216 9.70273 70.3057 9.89683C70.3898 10.0909 70.4332 10.3002 70.4332 10.5118C70.4332 10.7233 70.3898 10.9326 70.3057 11.1267C70.2216 11.3208 70.0986 11.4956 69.9443 11.6403C69.0295 12.6815 68.0905 13.7047 67.1697 14.7339C67.0132 14.9144 66.8748 15.107 66.634 15.408L68.5179 15.6668C69.1799 15.751 69.7878 15.9015 70.0767 16.6117C70.196 16.9183 70.2219 17.2533 70.1513 17.5746C70.0806 17.8959 69.9164 18.1891 69.6794 18.4173C68.0745 20.4757 66.4555 22.5401 64.8224 24.6105C64.7034 24.7686 64.5727 24.9175 64.4312 25.0559C64.1854 25.3413 63.8368 25.5179 63.4613 25.5472C63.0858 25.5765 62.7141 25.4561 62.427 25.2123C62.1418 24.9653 61.9631 24.6175 61.9283 24.2417C61.8936 23.866 62.0054 23.4913 62.2404 23.1961C63.0047 22.1609 63.8173 21.1618 64.6118 20.1446L65.9178 18.3752Z" fill="#72727F"/>
<path d="M75.0118 28.0711L76.7813 29.0943C78.0573 29.8345 78.0873 31.1406 76.7813 31.8929C74.418 33.2853 72.0426 34.6595 69.6552 36.0157C69.4893 36.138 69.2992 36.2235 69.0976 36.2662C68.896 36.309 68.6875 36.3081 68.4862 36.2636C68.285 36.2191 68.0956 36.1321 67.9308 36.0084C67.766 35.8846 67.6295 35.7271 67.5306 35.5463C67.4296 35.3737 67.3661 35.1817 67.3444 34.9829C67.3226 34.7842 67.343 34.583 67.4044 34.3927C67.4658 34.2024 67.5666 34.0271 67.7004 33.8785C67.8342 33.7298 67.9978 33.6111 68.1806 33.53C69.6191 32.6633 71.0876 31.8328 72.5381 30.9841C72.7307 30.8758 72.9113 30.7494 73.2363 30.5448C72.5441 30.1475 71.9423 29.7864 71.3284 29.4494C71.0239 29.3377 70.7604 29.1365 70.5724 28.8722C70.3844 28.608 70.2808 28.293 70.2751 27.9688C70.302 27.6335 70.4279 27.3137 70.6369 27.0501C70.8458 26.7864 71.1284 26.5909 71.4488 26.4882C73.5613 25.465 75.6618 24.4117 77.7744 23.3705L77.9128 23.3103C79.0263 22.7927 79.8328 22.9372 80.242 23.7196C80.6513 24.502 80.3203 25.3868 79.1888 25.9586C78.0573 26.5303 76.8776 27.09 75.728 27.6618C75.5415 27.7641 75.3368 27.8905 75.0118 28.0711Z" fill="#72727F"/>
<path d="M64.1602 79.3561L23.7991 79.8135C24.2529 79.1912 24.6555 78.533 25.0028 77.8454C26.0561 75.119 27.0432 72.3685 28.0483 69.63C28.5238 68.3239 29.0052 67.0239 29.4506 65.7118C29.5015 65.5231 29.6101 65.355 29.7612 65.2309C29.9122 65.1068 30.0982 65.033 30.2932 65.0197C31.7798 64.7669 33.2604 64.4599 34.7471 64.2192C35.0312 64.1925 35.315 64.2742 35.5415 64.4479C40.7597 68.5346 47.2779 68.4503 52.3937 64.2252C52.5706 64.0669 52.8004 63.981 53.0377 63.9845C54.5544 64.2132 56.0471 64.4961 57.5818 64.7308C57.7873 64.7425 57.9839 64.8186 58.1437 64.9482C58.3036 65.0778 58.4186 65.2544 58.4726 65.453C59.7907 69.0101 61.1028 72.5611 62.4931 76.088C62.9907 77.2061 63.5472 78.297 64.1602 79.3561Z" fill="#F1CF99"/>
<path d="M24.5517 47.2466L29.0236 49.2447C29.6977 49.5457 30.3598 49.9008 31.0579 50.1475C31.6598 50.3582 31.7199 50.6531 31.5213 51.2008C30.5342 53.8972 29.5773 56.6176 28.6083 59.308C26.8268 64.2673 25.0432 69.2287 23.2577 74.1921C22.6558 75.9495 22.0179 77.6829 20.3507 78.8084C19.2803 79.5298 18.0151 79.9071 16.7244 79.8899C15.4338 79.8727 14.1791 79.4618 13.1283 78.7121C12.047 77.967 11.2412 76.8866 10.8355 75.6377C10.4297 74.3888 10.4465 73.0411 10.8834 71.8027C11.4196 70.5269 12.0555 69.2952 12.7852 68.1193C15.0783 64.0146 17.3956 59.9219 19.7007 55.8232L24.317 47.6077C24.3531 47.5054 24.4313 47.4151 24.5517 47.2466Z" fill="#F1CF99"/>
<path d="M43.6666 57.2138C41.9474 57.2075 40.2506 56.8231 38.6967 56.0877C37.1427 55.3523 35.7695 54.284 34.6746 52.9586C34.4878 52.7983 34.3619 52.5785 34.318 52.3363C34.2742 52.094 34.3151 51.844 34.4339 51.6284C34.6156 51.221 34.7665 50.8005 34.8853 50.3705C35.0453 50.0298 35.0722 49.6416 34.9609 49.282C34.8495 48.9224 34.608 48.6173 34.2835 48.4265C34.1029 48.2881 33.8922 47.939 33.9464 47.7645C34.6566 45.357 34.4099 42.9495 34.139 40.5421C34.0975 40.1078 34.1445 39.6696 34.2775 39.2541C34.777 37.6772 35.3247 36.1123 35.8664 34.5414C35.9206 34.385 35.9988 34.1743 36.1252 34.1141C37.1664 33.5965 38.2076 33.097 39.2729 32.6335C39.4113 32.5733 39.6942 32.7359 39.8748 32.8622C43.5285 35.7958 47.8856 37.7233 52.514 38.4536C53.0556 38.5378 53.4589 39.2601 53.3988 40.0305C53.3386 40.8008 53.2543 41.511 53.1761 42.2513C53.006 43.9798 53.1591 45.7249 53.6275 47.3973C53.7358 47.8066 53.7478 48.0533 53.3265 48.3121C53.0144 48.4791 52.778 48.7593 52.666 49.0951C52.5541 49.4309 52.5751 49.7969 52.7247 50.1177C52.8221 50.5001 52.9592 50.8713 53.1339 51.2252C53.5733 51.9655 53.2784 52.5072 52.7848 53.0669C51.6583 54.38 50.2587 55.4315 48.6838 56.1477C47.1089 56.864 45.3966 57.2278 43.6666 57.2138ZM43.817 48.3603C42.7128 48.3645 41.6462 48.7613 40.8077 49.4798C40.0253 50.1478 39.8868 50.9543 40.4345 51.6284C40.9822 52.3025 41.7767 52.3507 42.6073 51.7428C42.9289 51.4281 43.361 51.2519 43.811 51.2519C44.261 51.2519 44.6931 51.4281 45.0147 51.7428C45.8032 52.3085 46.6037 52.2664 47.1273 51.6284C47.6509 50.9904 47.5787 50.1358 46.8022 49.4798C45.968 48.7702 44.9121 48.3743 43.817 48.3603ZM38.5928 45.7783C39.1224 45.5315 39.8387 45.2667 40.4947 44.8935C40.7892 44.7237 41.0086 44.4489 41.1091 44.1241C41.2095 43.7993 41.1836 43.4486 41.0364 43.1421C40.9044 42.8166 40.6545 42.5527 40.3365 42.4032C40.0186 42.2538 39.656 42.2296 39.3211 42.3356C38.6908 42.5561 38.0856 42.8426 37.5155 43.1903C37.2587 43.351 37.0683 43.5987 36.9788 43.8881C36.8893 44.1776 36.9067 44.4895 37.028 44.7672C37.2386 45.4112 37.7442 45.682 38.6229 45.7783H38.5928ZM50.6723 44.093C50.4377 43.6882 50.1435 43.3209 49.7995 43.0037C49.2711 42.683 48.7024 42.4341 48.1083 42.2634C47.7729 42.1622 47.4116 42.1931 47.0983 42.3498C46.7849 42.5064 46.5433 42.777 46.4231 43.106C46.2955 43.4196 46.2861 43.7689 46.3968 44.0889C46.5076 44.4089 46.7308 44.6777 47.0249 44.8454C47.5632 45.1461 48.1323 45.3883 48.7222 45.5676C48.949 45.6234 49.1853 45.6277 49.414 45.5803C49.6426 45.5329 49.8578 45.4348 50.0436 45.2934C50.2294 45.152 50.3812 44.9708 50.4879 44.7631C50.5946 44.5554 50.6535 44.3265 50.6602 44.093H50.6723Z" fill="#F9E4C7"/>
<path d="M56.4629 28.3542C53.1586 28.4926 50.4803 31.2552 51.6479 35.3779C50.5164 35.0349 49.4812 34.7761 48.4761 34.415C45.7235 33.4167 43.1821 31.9122 40.9829 29.9792C40.7483 29.7383 40.4481 29.5716 40.1196 29.4999C39.7911 29.4282 39.4487 29.4547 39.1351 29.5759C38.0216 29.9972 36.9262 30.4486 35.8128 30.8519C35.6142 30.9241 35.2109 30.9121 35.1387 30.7857C34.6378 30.0872 33.9744 29.5211 33.2058 29.1362C32.4372 28.7514 31.5864 28.5594 30.7271 28.5769C31.7141 25.1703 36.5712 20.2169 43.2218 20.0183C49.8724 19.8197 55.1628 24.5143 56.4629 28.3542Z" fill="#E5AD58"/>
<path d="M31.106 46.9998C29.788 46.3979 28.5722 45.8743 27.3745 45.2905C27.2835 45.2173 27.2086 45.126 27.1548 45.0224C27.1009 44.9188 27.0691 44.8051 27.0615 44.6886C26.8087 42.4015 26.5379 40.1144 26.3694 37.8213C26.3131 37.1264 26.4071 36.4276 26.6449 35.7723C26.8827 35.117 27.2588 34.5206 27.7477 34.0235C28.3495 33.4217 28.9153 32.8198 29.5533 32.2179C29.8605 31.8723 30.2787 31.6447 30.7358 31.5744C31.1928 31.5041 31.6601 31.5954 32.057 31.8327C32.4667 32.0752 32.778 32.4542 32.9365 32.9031C33.0949 33.3521 33.0904 33.8424 32.9237 34.2884C32.6882 35.1729 32.3802 36.0364 32.0028 36.8703C31.0579 38.7421 31.1422 40.6742 31.4371 42.6603C31.6427 44.1137 31.5297 45.5944 31.106 46.9998Z" fill="#F9E4C7"/>
<path d="M56.2101 46.6387C56.1318 45.3928 56.0476 44.153 55.9753 42.9071C55.9642 42.6824 55.9865 42.4573 56.0415 42.2391C56.7277 39.5186 55.5541 37.1533 54.6092 34.7398C54.4739 34.4223 54.3652 34.0942 54.2841 33.7588C54.204 33.3675 54.2419 32.9613 54.393 32.5917C54.5441 32.222 54.8016 31.9055 55.1328 31.6823C55.4763 31.4515 55.8846 31.3364 56.2981 31.3538C56.7116 31.3711 57.1088 31.5199 57.4319 31.7786C58.3343 32.5507 59.1773 33.3897 59.9537 34.2884C60.3488 34.7953 60.64 35.3753 60.8104 35.995C60.9808 36.6147 61.0271 37.2619 60.9468 37.8996C60.7903 39.9219 60.5977 41.9441 60.4593 43.9664C60.4723 44.2593 60.3877 44.5481 60.2189 44.7877C60.0501 45.0274 59.8065 45.2042 59.5264 45.2905C58.4972 45.6878 57.5161 46.2234 56.517 46.6989L56.2101 46.6387Z" fill="#F9E4C7"/>
<path d="M50.1307 62.2149C47.0431 65.152 41.1027 65.3867 37.6841 62.3593L39.0383 59.5366C40.6309 59.8118 42.2389 59.9887 43.8532 60.0662C45.4701 59.9557 47.0783 59.7427 48.6681 59.4282C49.1496 60.2889 49.6372 61.2459 50.1307 62.2149Z" fill="#F9E4C7"/>
<path d="M43.8172 48.3604C44.9183 48.3637 45.9834 48.7535 46.8265 49.4618C47.6029 50.1178 47.7173 50.9243 47.1515 51.6104C46.5858 52.2966 45.8274 52.2906 45.039 51.7248C44.7173 51.4101 44.2852 51.2339 43.8353 51.2339C43.3853 51.2339 42.9532 51.4101 42.6315 51.7248C41.801 52.3267 41.0065 52.2906 40.4588 51.6104C39.9111 50.9303 40.0495 50.1298 40.832 49.4618C41.6667 48.7552 42.7236 48.3652 43.8172 48.3604Z" fill="#72727F"/>
<path d="M38.6239 45.7783C37.7753 45.682 37.2697 45.4111 37.0651 44.7672C36.9439 44.4895 36.9264 44.1775 37.0158 43.8881C37.1053 43.5987 37.2958 43.351 37.5525 43.1902C38.1226 42.8425 38.7279 42.5561 39.3581 42.3356C39.6931 42.2296 40.0557 42.2537 40.3736 42.4032C40.6916 42.5527 40.9414 42.8165 41.0734 43.1421C41.2206 43.4486 41.2466 43.7993 41.1462 44.1241C41.0457 44.4488 40.8263 44.7237 40.5318 44.8935C39.8276 45.2667 39.1234 45.5315 38.6239 45.7783Z" fill="#72727F"/>
<path d="M50.6605 44.0928C50.6548 44.3294 50.5955 44.5618 50.4871 44.7723C50.3786 44.9827 50.2239 45.1658 50.0344 45.3078C49.8449 45.4498 49.6257 45.5469 49.3932 45.5918C49.1607 45.6368 48.9211 45.6284 48.6924 45.5673C48.1024 45.388 47.5334 45.1459 46.9951 44.8451C46.701 44.6774 46.4778 44.4086 46.367 44.0886C46.2563 43.7686 46.2657 43.4193 46.3933 43.1057C46.5135 42.7767 46.7551 42.5061 47.0684 42.3495C47.3817 42.1928 47.7431 42.1619 48.0785 42.2631C48.6725 42.4338 49.2413 42.6827 49.7697 43.0034C50.1201 43.3193 50.4204 43.6866 50.6605 44.0928Z" fill="#72727F"/>
<path d="M55.614 50.2498L60.0498 48.0409C60.7178 47.7039 61.422 47.4391 62.06 47.0298C62.6017 46.7048 62.8786 46.8312 63.1795 47.3428C64.6541 49.8465 66.1527 52.3322 67.6393 54.83C70.3718 59.4082 73.1022 63.9884 75.8307 68.5706C76.7997 70.1896 77.7627 71.7846 77.5701 73.8068C77.4482 75.1115 76.9295 76.3475 76.0836 77.3483C75.2378 78.3491 74.1055 79.0666 72.8394 79.4042C71.5633 79.7742 70.2006 79.7115 68.9639 79.2259C67.7271 78.7404 66.6858 77.8592 66.0022 76.7199C65.3504 75.4792 64.797 74.1892 64.3471 72.8619C62.6137 68.4382 60.9044 64.0024 59.1831 59.5667L55.7344 50.6831C55.6923 50.5688 55.6682 50.4665 55.614 50.2498Z" fill="#F1CF99"/>
</svg>
