<svg width="86" height="86" viewBox="0 0 86 86" fill="none" xmlns="http://www.w3.org/2000/svg">
<path d="M13.1653 54.7102L6.96715 51.1839C6.90765 51.146 6.85361 51.092 6.73462 50.9946C6.98882 50.5295 7.24298 50.0535 7.508 49.583C10.4682 44.3908 13.4249 39.1969 16.3779 34.0011C16.6105 33.5847 16.7944 33.4603 17.2595 33.7253C19.0605 34.78 20.8832 35.8076 22.7112 36.8135C23.1385 37.0515 23.2521 37.2679 22.9925 37.7059C19.8159 43.219 16.6466 48.7321 13.4844 54.2451C13.4033 54.3911 13.2951 54.5209 13.1653 54.7102Z" fill="#E5AD58"/>
<path d="M63.9783 58.8966C64.6634 59.9645 64.9471 61.2411 64.7787 62.4987C64.6212 63.5783 64.1012 64.5722 63.3041 65.3172C62.507 66.0622 61.4802 66.514 60.3924 66.5983C59.9057 66.6361 59.7542 66.793 59.7056 67.2689C59.6526 68.4463 59.1608 69.5611 58.327 70.394C57.4931 71.2268 56.3777 71.7173 55.2003 71.7688C54.7676 71.8067 54.6594 71.9581 54.6161 72.3745C54.5907 73.0248 54.4337 73.6632 54.1546 74.2511C53.8755 74.839 53.48 75.3641 52.9921 75.7949C52.5043 76.2256 51.9342 76.5529 51.3163 76.7571C50.6983 76.9612 50.0454 77.0379 49.397 76.9826C48.9481 76.9826 48.7913 77.0745 48.6452 77.5234C48.4416 78.1744 48.0781 78.7639 47.588 79.2383C47.0979 79.7126 46.4969 80.0567 45.8396 80.239C45.1824 80.4213 44.49 80.4361 43.8256 80.282C43.1612 80.1279 42.546 79.8099 42.0361 79.3569C41.8268 79.1769 41.5603 79.0772 41.2843 79.0757C38.5422 79.4326 37.1143 78.5781 36.0921 75.955C35.3492 75.9357 34.6093 75.8543 33.88 75.7116C31.7166 75.1058 30.5268 73.5752 30.2455 71.3848C30.186 70.9251 30.0076 70.8061 29.5803 70.7466C26.8761 70.341 25.3617 68.7563 25.0912 66.0358C25.0912 65.9439 25.0534 65.8519 25.0263 65.7113C24.5991 65.6572 24.1718 65.641 23.7554 65.5545C21.2891 65.0136 19.7531 62.8502 20.0181 60.1784C20.0702 59.967 20.0442 59.7438 19.9449 59.55C19.8455 59.3562 19.6794 59.2048 19.4772 59.1238C18.044 58.3449 16.6432 57.5012 15.2099 56.7008C15.0639 56.8792 14.9504 56.9982 14.853 57.128C14.3446 57.8149 13.7713 58.0096 13.0411 57.6094C10.1566 55.9904 7.27206 54.3553 4.38753 52.7039C3.59248 52.2442 3.48975 51.4978 4.01438 50.5729C5.09607 48.6529 6.21562 46.7437 7.31354 44.8237C9.8375 40.3779 12.3615 35.9322 14.8854 31.4864C15.4966 30.4047 16.1132 30.1992 17.184 30.8049C19.9027 32.3373 22.6178 33.8787 25.3292 35.4292C26.4542 36.0728 26.5191 36.4514 25.789 38.1334C26.0432 38.1334 26.2595 38.1929 26.4758 38.1929C28.4932 38.1659 30.516 38.1497 32.5333 38.0902C32.9613 38.0699 33.3808 37.9632 33.7665 37.7765C34.7238 37.3276 35.654 36.8246 36.5897 36.3378C37.2174 35.9664 37.9356 35.7759 38.6649 35.7874C39.3941 35.7988 40.106 36.0118 40.7218 36.4027C42.2091 37.3654 43.5342 37.5709 45.0918 36.5109C46.0545 35.851 47.2552 36.0457 48.3694 36.4135C51.317 37.3762 54.2808 38.2849 57.196 39.3179C58.613 39.8209 59.8246 39.4747 61.1496 38.8365C60.8468 38.2957 60.5547 37.7819 60.2789 37.2681C59.8462 36.4568 59.9814 35.8294 60.7603 35.3643C63.5907 33.684 66.4265 32.0146 69.2678 30.356C70.144 29.8476 70.7875 30.0531 71.3176 30.9509L80.9501 47.2629C81.5505 48.2797 82.167 49.2803 82.7565 50.2971C83.2974 51.222 83.1135 51.8602 82.1833 52.3956L73.9353 57.1226C72.8536 57.7392 72.2478 57.5769 71.5988 56.5223C71.3176 56.0571 71.058 55.592 70.7118 55.0728L63.9783 58.8966ZM53.3992 52.9743C53.2738 52.8504 53.142 52.733 53.0044 52.6228C51.1169 51.222 49.1861 49.8698 47.3418 48.4095C46.4916 47.7408 45.4378 47.3838 44.3563 47.3982C43.9482 47.3586 43.5378 47.4434 43.1788 47.6412C42.8197 47.8391 42.5289 48.1408 42.3443 48.5069C41.7602 49.5237 41.1436 50.5297 40.5217 51.5248C40.2654 51.9514 39.8924 52.2957 39.4468 52.5171C39.0011 52.7385 38.5014 52.8277 38.0067 52.7742C36.9575 52.7039 35.9028 52.5741 34.859 52.401C34.4658 52.3422 34.09 52.1992 33.7571 51.9819C33.4242 51.7646 33.1421 51.478 32.93 51.1418C32.718 50.8055 32.581 50.4274 32.5284 50.0334C32.4758 49.6393 32.5089 49.2386 32.6253 48.8585C32.9908 47.7636 33.2888 46.6473 33.5177 45.516C33.9504 42.709 35.3999 40.8214 38.1095 39.8804C38.78 39.6006 39.4305 39.2753 40.0565 38.9068C39.7435 38.5937 39.3361 38.3924 38.8972 38.3337C38.4583 38.2751 38.0124 38.3624 37.6281 38.5823C37.1414 38.8419 36.6383 39.0745 36.1624 39.3612C34.7243 40.2483 33.0532 40.6835 31.3651 40.6105C29.2017 40.5456 26.995 40.6808 24.81 40.7024C24.6215 40.6897 24.4337 40.7346 24.2714 40.8312C24.1091 40.9278 23.98 41.0716 23.9014 41.2433C21.9597 44.6669 19.9964 48.085 18.044 51.5194C17.5031 52.4497 16.9623 53.3908 16.4214 54.3859C17.9466 55.2621 19.4015 56.0842 20.8402 56.9496C20.9154 57.0143 21.0036 57.0622 21.0988 57.0902C21.1941 57.1181 21.2942 57.1255 21.3924 57.1116C21.4907 57.0978 21.585 57.0632 21.6688 57.01C21.7526 56.9569 21.8242 56.8865 21.8786 56.8035C23.2524 55.3919 24.6207 53.9695 26.081 52.6498C27.0407 51.8265 28.2847 51.4118 29.5464 51.4947C30.8081 51.5777 31.9871 52.1515 32.8308 53.0933C33.6396 54.0215 34.0869 55.21 34.091 56.4412C37.1305 56.7008 39.0019 58.4261 39.2777 61.5305C39.9384 61.6308 40.5884 61.792 41.2194 62.0119C41.8272 62.3397 42.4109 62.7102 42.9663 63.1206C43.1054 63.2005 43.268 63.2292 43.426 63.2018C44.1183 63.0395 44.8106 62.8448 45.5137 62.6609C45.6814 59.9837 47.2444 57.8636 50.6518 57.5823C50.6311 56.6358 50.8761 55.7024 51.3588 54.888C51.8416 54.0735 52.5428 53.4106 53.3831 52.9743H53.3992ZM35.0104 49.6048C35.1618 49.7076 35.3403 49.9131 35.5512 49.951C36.2814 50.0754 37.0278 50.1294 37.7634 50.2376C37.9368 50.2805 38.1199 50.2592 38.2789 50.1777C38.4379 50.0962 38.5622 49.96 38.6287 49.7941C39.1695 48.8152 39.7861 47.8579 40.381 46.9006C40.8357 46.0949 41.5742 45.4876 42.4525 45.1969C44.3779 44.6236 46.2871 44.6993 47.98 45.8297C49.7756 47.025 51.4955 48.3447 53.1991 49.6697C55.7195 51.6222 58.5103 53.2285 60.6954 55.6191C61.0361 55.9923 61.4255 56.3168 61.777 56.7008C61.8209 56.7645 61.8779 56.8181 61.9443 56.858C62.0106 56.8978 62.0848 56.9229 62.1617 56.9316C62.2386 56.9403 62.3165 56.9325 62.3901 56.9085C62.4636 56.8845 62.5313 56.845 62.5883 56.7927C64.658 55.5812 66.7402 54.3859 68.8351 53.2069C69.3435 52.9256 69.376 52.6931 69.0785 52.2063C67.0557 48.826 65.0762 45.4241 63.0696 42.0383C62.3719 40.8593 62.6586 40.9134 61.4038 41.4542C59.7665 42.1861 57.9066 42.2425 56.2279 41.6111C53.4426 40.6267 50.6085 39.7884 47.8123 38.8473C47.4311 38.7062 47.0237 38.6495 46.6184 38.6813C46.2131 38.713 45.8196 38.8324 45.465 39.0312C43.3341 40.1129 41.1382 41.1676 39.0397 42.2763C36.5572 43.5635 36.8222 43.0227 36.0975 45.7648C36.065 45.8838 36.0218 45.992 35.9894 46.1109C35.6703 47.1926 35.3673 48.3068 35.0104 49.6048ZM79.9766 50.6487L69.5706 33.0494L62.9885 36.9057C66.4716 42.8064 69.8951 48.5988 73.3457 54.4508L79.9766 50.6487ZM13.1656 54.7104C13.2954 54.5211 13.4035 54.3913 13.4846 54.2507C16.654 48.7377 19.8234 43.2246 22.9927 37.7116C23.2415 37.2735 23.1388 37.0571 22.7115 36.8192C20.8834 35.8132 19.0608 34.7856 17.2598 33.7309C16.7946 33.4605 16.6107 33.5903 16.3782 34.0067C13.4323 39.2061 10.4757 44.4 7.50824 49.5886C7.24322 50.0591 6.96743 50.5351 6.73486 51.0002C6.85385 51.0976 6.9079 51.1517 6.96739 51.1895L13.1656 54.7104ZM62.2962 61.3791C62.0598 60.8747 61.7773 60.3931 61.4525 59.9404C60.8909 59.3149 60.297 58.7191 59.6731 58.1556C58.8186 57.3173 57.9911 56.4412 57.0933 55.6461C56.8722 55.4408 56.6129 55.2812 56.33 55.1763C56.0471 55.0714 55.7464 55.0234 55.4449 55.0349C55.1435 55.0465 54.8472 55.1174 54.5732 55.2436C54.2992 55.3698 54.0529 55.5489 53.8482 55.7705C53.4554 56.185 53.2276 56.7288 53.2077 57.2996C53.1878 57.8703 53.377 58.4286 53.74 58.8696C55.2868 60.4777 56.8751 62.0425 58.5049 63.5641C58.8408 63.8657 59.2637 64.0528 59.7128 64.0985C60.1619 64.1442 60.6139 64.0461 61.0036 63.8183C61.8636 63.3965 62.2367 62.6555 62.2962 61.3791ZM41.8035 66.9228C41.7602 65.5112 41.3005 64.7594 40.3702 64.3754C39.9378 64.179 39.454 64.1255 38.9891 64.2228C38.5242 64.32 38.1024 64.563 37.7849 64.9163C36.3787 66.3297 34.9815 67.7503 33.5934 69.1781C33.3456 69.3911 33.1451 69.6534 33.0046 69.9484C32.8641 70.2433 32.7866 70.5643 32.7773 70.8908C32.7679 71.2174 32.8268 71.5423 32.9502 71.8448C33.0737 72.1473 33.2588 72.4207 33.4939 72.6475C33.7291 72.8743 34.009 73.0495 34.3157 73.162C34.6224 73.2744 34.9493 73.3216 35.2753 73.3005C35.6013 73.2794 35.9193 73.1904 36.2089 73.0394C36.4986 72.8883 36.7536 72.6785 36.9575 72.4232C38.2934 71.0765 39.6617 69.746 40.9381 68.3506C41.2823 67.9107 41.5728 67.4314 41.8035 66.9228ZM50.8464 60.2055C49.5106 60.2487 48.775 60.7084 48.3531 61.6279C48.1597 62.0716 48.1079 62.5642 48.2047 63.0385C48.3015 63.5127 48.5422 63.9456 48.894 64.278C50.2569 65.6572 51.6469 67.0202 53.0207 68.3939C54.0699 69.4323 55.4978 69.5243 56.4389 68.6102C56.6751 68.3854 56.8625 68.1144 56.9896 67.8141C57.1167 67.5137 57.1808 67.1905 57.1777 66.8644C57.1747 66.5382 57.1046 66.2163 56.9719 65.9183C56.8392 65.6204 56.6468 65.353 56.4064 65.1326C55.0002 63.6939 53.5778 62.2661 52.0796 60.8923C51.6988 60.6007 51.2757 60.369 50.8249 60.2055H50.8464ZM30.3699 68.1776C30.8807 67.9338 31.3662 67.6404 31.8194 67.3014C32.582 66.6524 33.2581 65.8952 33.9828 65.1704C34.8117 64.3743 35.5919 63.5291 36.3193 62.6393C36.6378 62.1778 36.7687 61.6123 36.6853 61.0578C36.6019 60.5032 36.3105 60.0012 35.8704 59.6538C35.4476 59.2894 34.9059 59.0926 34.3478 59.1006C33.7897 59.1086 33.2539 59.3207 32.8416 59.6971C31.2948 61.1952 29.775 62.7312 28.2823 64.2889C27.9733 64.617 27.7727 65.0323 27.7079 65.4784C27.643 65.9244 27.7171 66.3797 27.9199 66.7822C28.2444 67.6854 28.9961 68.1127 30.3483 68.1776H30.3699ZM25.1561 63.0665C25.6098 62.9304 26.0362 62.7163 26.4164 62.4337C27.9632 60.968 29.4667 59.4483 30.9433 57.9068C31.3492 57.4666 31.5696 56.8868 31.5587 56.288C31.5478 55.6893 31.3063 55.1179 30.8846 54.6927C30.4629 54.2675 29.8936 54.0214 29.295 54.0056C28.6964 53.9897 28.1147 54.2054 27.6711 54.6077C26.1026 56.122 24.572 57.6761 23.0793 59.2698C22.7683 59.5959 22.5709 60.0136 22.5163 60.4608C22.4618 60.9081 22.5529 61.361 22.7764 61.7523C23.1712 62.6176 23.896 63.0071 25.1345 63.0828L25.1561 63.0665ZM49.927 74.4244C50.2131 74.3754 50.4926 74.2938 50.76 74.181C51.1105 74.0169 51.4149 73.7686 51.6463 73.4583C51.8777 73.148 52.0287 72.7854 52.086 72.4026C52.1433 72.0198 52.105 71.6288 51.9746 71.2644C51.8442 70.9 51.6258 70.5735 51.3386 70.3139C49.9757 68.9023 48.6344 67.4907 47.1579 66.1656C46.6493 65.7462 46.036 65.4732 45.3839 65.376C44.5402 65.2408 44.3292 65.5382 44.34 66.4036C44.3483 66.5719 44.3374 66.7407 44.3076 66.9066C44.2103 67.3338 44.3671 67.5123 44.8052 67.6584C45.795 67.9706 46.6295 68.6465 47.1404 69.5499C47.6513 70.4533 47.8006 71.5169 47.5581 72.526C47.5148 72.7207 47.4716 73.0019 47.5581 73.1317C47.8108 73.5293 48.1589 73.8573 48.5708 74.086C48.9826 74.3146 49.4452 74.4365 49.9162 74.4406L49.927 74.4244ZM45.1243 71.8391C45.081 70.9629 44.8214 70.4491 44.2048 70.1841C43.9088 70.0402 43.5739 69.9966 43.2509 70.0601C42.9278 70.1235 42.6343 70.2905 42.4146 70.5357C41.3329 71.6174 40.2188 72.7423 39.1695 73.8727C39.0132 74.0153 38.8876 74.1882 38.8003 74.381C38.713 74.5737 38.6659 74.7822 38.6618 74.9938C38.6578 75.2053 38.6969 75.4155 38.7767 75.6114C38.8566 75.8074 38.9755 75.985 39.1263 76.1335C39.7807 76.7717 40.6839 76.7392 41.4303 75.9982C42.512 74.9544 43.5342 73.8997 44.551 72.8126C44.7718 72.5066 44.9569 72.1764 45.1026 71.8283L45.1243 71.8391ZM45.8598 75.241L43.5991 77.2151C44.5347 77.8966 45.2703 77.8642 45.8328 77.2963C46.1012 77.0197 46.2518 76.6497 46.2528 76.2643C46.2538 75.8789 46.1051 75.5082 45.8382 75.2302L45.8598 75.241Z" fill="#72727F"/>
<path d="M57.5421 19.6851C57.5443 21.6113 57.1667 23.5189 56.4311 25.2991C55.6955 27.0792 54.6162 28.6969 53.2549 30.0597C51.8937 31.4224 50.2772 32.5035 48.4979 33.2411C46.7186 33.9787 44.8113 34.3583 42.8851 34.3583C34.9022 34.3205 28.4282 27.6356 28.531 19.3876C28.588 15.5222 30.1755 11.837 32.9453 9.14015C35.7152 6.4433 39.4414 4.95481 43.307 5.00105C51.1061 5.04431 57.5638 11.6697 57.5421 19.6851ZM42.7986 31.8271C45.9935 31.8604 49.0716 30.6274 51.3601 28.3978C53.6485 26.1681 54.9611 23.1231 55.011 19.9285C55.13 13.1354 49.8945 7.7648 43.0041 7.61877C36.6113 7.48356 31.1866 12.892 31.0405 19.5499C30.9909 22.7317 32.1974 25.8048 34.3985 28.103C36.5995 30.4012 39.6176 31.7393 42.7986 31.8271Z" fill="#72727F"/>
<path d="M53.3833 52.9744C52.5427 53.4083 51.8403 54.0689 51.3557 54.8814C50.8711 55.6939 50.6236 56.6257 50.6412 57.5716C47.2338 57.8528 45.6708 59.9729 45.5031 62.6502C44.8 62.8394 44.1077 63.0342 43.4154 63.191C43.2574 63.2185 43.0948 63.1897 42.9557 63.1099C42.4004 62.6994 41.8166 62.3289 41.2088 62.0011C40.5778 61.7812 39.9278 61.62 39.2672 61.5198C38.9913 58.4153 37.1037 56.69 34.0804 56.4304C34.0763 55.1993 33.629 54.0108 32.8202 53.0825C31.9765 52.1407 30.7975 51.5669 29.5358 51.484C28.2741 51.4011 27.0301 51.8157 26.0704 52.639C24.6101 53.9587 23.2418 55.3811 21.868 56.7927C21.8136 56.8757 21.7421 56.9461 21.6582 56.9993C21.5744 57.0524 21.4801 57.087 21.3819 57.1009C21.2836 57.1147 21.1835 57.1074 21.0883 57.0794C20.993 57.0515 20.9048 57.0035 20.8296 56.9388C19.3909 56.0734 17.9361 55.2513 16.4109 54.3752C16.9517 53.38 17.4926 52.4389 18.0334 51.5087C19.9859 48.0851 21.9492 44.6669 23.8908 41.2325C23.9694 41.0608 24.0985 40.9171 24.2608 40.8205C24.4231 40.7239 24.611 40.6789 24.7995 40.6917C26.9629 40.6917 29.1749 40.5348 31.3545 40.5997C33.0426 40.6727 34.7138 40.2375 36.1519 39.3504C36.6278 39.0637 37.1308 38.8095 37.6175 38.5716C38.0018 38.3517 38.4478 38.2643 38.8867 38.323C39.3255 38.3816 39.7329 38.583 40.0459 38.8961C39.4199 39.2646 38.7694 39.5898 38.0989 39.8696C35.3947 40.8107 33.9398 42.6982 33.5071 45.5052C33.2782 46.6366 32.9802 47.7528 32.6147 48.8477C32.4983 49.2278 32.4652 49.6286 32.5178 50.0226C32.5704 50.4166 32.7075 50.7947 32.9195 51.131C33.1315 51.4673 33.4136 51.7538 33.7465 51.9712C34.0794 52.1885 34.4552 52.3314 34.8484 52.3903C35.8922 52.5633 36.9469 52.6931 37.9961 52.7634C38.4908 52.8169 38.9906 52.7277 39.4362 52.5063C39.8819 52.2849 40.2548 51.9406 40.5111 51.5141C41.133 50.5189 41.7496 49.5129 42.3337 48.4961C42.5183 48.1301 42.8091 47.8283 43.1682 47.6305C43.5272 47.4326 43.9376 47.3479 44.3457 47.3874C45.4272 47.373 46.481 47.73 47.3312 48.3988C49.1755 49.8591 51.1171 51.2112 52.9938 52.612C53.1299 52.7259 53.2599 52.8469 53.3833 52.9744Z" fill="#F1CF99"/>
<path d="M35.0105 49.6047C35.3675 48.3066 35.6704 47.1925 35.9786 46.0837C36.0111 45.9648 36.0544 45.8566 36.0868 45.7376C36.8116 42.9955 36.5465 43.5363 39.029 42.2491C41.1546 41.1674 43.3234 40.0857 45.4543 39.004C45.8089 38.8052 46.2024 38.6858 46.6077 38.6541C47.013 38.6223 47.4204 38.679 47.8016 38.8201C50.5978 39.7612 53.4319 40.5995 56.2172 41.5839C57.8959 42.2153 59.7558 42.1589 61.3931 41.427C62.6479 40.8862 62.3613 40.8321 63.059 42.0111C65.0655 45.3969 67.045 48.7988 69.0678 52.1791C69.3599 52.6659 69.3328 52.8984 68.8244 53.1797C66.7295 54.3551 64.6473 55.5504 62.5776 56.7655C62.5206 56.8178 62.4529 56.8573 62.3793 56.8813C62.3058 56.9052 62.2279 56.9131 62.151 56.9044C62.0741 56.8957 61.9999 56.8706 61.9336 56.8307C61.8672 56.7909 61.8102 56.7373 61.7663 56.6735C61.4256 56.3004 61.0362 55.9759 60.6846 55.5919C58.5212 53.2121 55.7088 51.6058 53.1885 49.6425C51.4848 48.3174 49.7649 46.9978 47.9693 45.8025C46.2764 44.6721 44.3672 44.5964 42.4418 45.1697C41.5636 45.4604 40.825 46.0677 40.3703 46.8734C39.7754 47.8307 39.1805 48.788 38.618 49.7669C38.5515 49.9328 38.4273 50.069 38.2683 50.1505C38.1092 50.232 37.9261 50.2533 37.7526 50.2104C37.0171 50.1022 36.2707 50.0482 35.5406 49.9238C35.3405 49.9129 35.1619 49.7074 35.0105 49.6047Z" fill="#F1CF99"/>
<path d="M79.9768 50.6433L73.346 54.4292C69.8954 48.5772 66.4718 42.7847 62.9888 36.8841L69.5709 33.0278L79.9768 50.6433Z" fill="#E5AD58"/>
<path d="M62.2965 61.3791C62.237 62.6555 61.8638 63.3964 61.0039 63.8183C60.6141 64.046 60.1622 64.1441 59.7131 64.0984C59.264 64.0528 58.841 63.8657 58.5051 63.5641C56.8754 62.0425 55.2871 60.4776 53.7402 58.8695C53.3773 58.4286 53.188 57.8703 53.208 57.2995C53.2279 56.7288 53.4557 56.185 53.8484 55.7705C54.0531 55.5489 54.2995 55.3698 54.5735 55.2436C54.8475 55.1174 55.1437 55.0464 55.4452 55.0349C55.7466 55.0233 56.0474 55.0714 56.3303 55.1762C56.6131 55.2811 56.8725 55.4408 57.0935 55.6461C57.9913 56.4411 58.8189 57.3173 59.6734 58.1556C60.2973 58.7191 60.8912 59.3148 61.4527 59.9404C61.7776 60.393 62.06 60.8746 62.2965 61.3791Z" fill="#F1CF99"/>
<path d="M41.8035 66.9226C41.5732 67.4331 41.2827 67.9143 40.9382 68.3559C39.6564 69.7512 38.2934 71.0601 36.9576 72.4285C36.7536 72.6837 36.4987 72.8935 36.209 73.0446C35.9193 73.1956 35.6013 73.2846 35.2753 73.3057C34.9493 73.3268 34.6225 73.2796 34.3158 73.1672C34.009 73.0547 33.7291 72.8795 33.494 72.6527C33.2589 72.4259 33.0737 72.1525 32.9503 71.85C32.8269 71.5475 32.768 71.2226 32.7773 70.8961C32.7867 70.5695 32.8641 70.2485 33.0046 69.9536C33.1452 69.6587 33.3457 69.3963 33.5934 69.1834C34.978 67.7411 36.3752 66.3205 37.785 64.9215C38.1024 64.5682 38.5243 64.3253 38.9892 64.228C39.4541 64.1307 39.9378 64.1842 40.3703 64.3806C41.2627 64.7646 41.7386 65.511 41.8035 66.9226Z" fill="#F1CF99"/>
<path d="M50.8249 60.2056C51.2775 60.3775 51.7007 60.6183 52.0797 60.9195C53.5562 62.2932 54.9786 63.7211 56.4065 65.1597C56.6468 65.3801 56.8393 65.6476 56.972 65.9455C57.1047 66.2434 57.1748 66.5654 57.1778 66.8915C57.1808 67.2176 57.1168 67.5409 56.9897 67.8412C56.8626 68.1416 56.6752 68.4126 56.439 68.6374C55.4979 69.5514 54.07 69.4595 53.0208 68.4211C51.647 67.0473 50.257 65.6844 48.8941 64.3052C48.5423 63.9728 48.3015 63.5399 48.2047 63.0656C48.108 62.5914 48.1598 62.0988 48.3532 61.655C48.7535 60.7086 49.489 60.2488 50.8249 60.2056Z" fill="#F1CF99"/>
<path d="M30.3486 68.1778C28.9965 68.1129 28.2447 67.6856 27.8715 66.7824C27.6687 66.3799 27.5947 65.9247 27.6595 65.4786C27.7244 65.0326 27.9249 64.6173 28.2339 64.2891C29.7267 62.7315 31.2464 61.1954 32.7933 59.6973C33.2055 59.321 33.7413 59.1088 34.2994 59.1008C34.8575 59.0928 35.3992 59.2897 35.822 59.654C36.2622 60.0015 36.5536 60.5035 36.637 61.058C36.7203 61.6125 36.5895 62.178 36.2709 62.6395C35.5436 63.5293 34.7633 64.3746 33.9344 65.1707C33.2367 65.8954 32.5607 66.6526 31.771 67.3016C31.3264 67.6391 30.85 67.9325 30.3486 68.1778Z" fill="#F1CF99"/>
<path d="M25.135 63.0828C23.8965 63.0233 23.1717 62.6339 22.7553 61.7685C22.5318 61.3773 22.4406 60.9243 22.4951 60.4771C22.5497 60.0298 22.7471 59.6121 23.0581 59.286C24.5509 57.6959 26.0814 56.1419 27.6499 54.6239C28.0935 54.2216 28.6752 54.006 29.2738 54.0218C29.8724 54.0376 30.4418 54.2838 30.8635 54.7089C31.2852 55.1341 31.5266 55.7056 31.5375 56.3043C31.5484 56.903 31.328 57.4828 30.9221 57.9231C29.4456 59.4645 27.942 60.9843 26.3952 62.45C26.015 62.7325 25.5886 62.9466 25.135 63.0828Z" fill="#F1CF99"/>
<path d="M49.9161 74.4407C49.45 74.4404 48.9912 74.3247 48.5806 74.1038C48.1701 73.883 47.8206 73.5639 47.5634 73.1751C47.4607 73.0453 47.5039 72.7641 47.5634 72.5694C47.8059 71.5603 47.6566 70.4967 47.1457 69.5933C46.6348 68.6899 45.8003 68.0139 44.8105 67.7017C44.3724 67.5557 44.2156 67.3773 44.3129 66.95C44.3427 66.7841 44.3536 66.6153 44.3453 66.447C44.3453 65.5816 44.5455 65.2842 45.3892 65.4194C46.0413 65.5166 46.6546 65.7895 47.1632 66.209C48.6127 67.5341 49.981 68.9457 51.344 70.3573C51.6311 70.6169 51.8496 70.9434 51.9799 71.3078C52.1103 71.6722 52.1486 72.0632 52.0913 72.446C52.034 72.8288 51.883 73.1915 51.6516 73.5017C51.4203 73.812 51.1157 74.0603 50.7652 74.2244C50.4915 74.3291 50.2066 74.4017 49.9161 74.4407Z" fill="#F1CF99"/>
<path d="M45.1028 71.8283C44.9438 72.1803 44.7441 72.5125 44.5079 72.8181C43.4911 73.8998 42.4418 74.9815 41.3872 76.0037C40.6408 76.7446 39.7646 76.7771 39.0832 76.1389C38.9324 75.9904 38.8135 75.8128 38.7336 75.6169C38.6538 75.4209 38.6146 75.2107 38.6187 74.9992C38.6227 74.7876 38.6698 74.5792 38.7571 74.3864C38.8444 74.1937 38.9701 74.0207 39.1265 73.8781C40.2082 72.7478 41.2899 71.6444 42.3716 70.5411C42.5912 70.2959 42.8848 70.1289 43.2078 70.0655C43.5308 70.0021 43.8657 70.0456 44.1617 70.1895C44.7999 70.4383 45.0487 70.9521 45.1028 71.8283Z" fill="#F1CF99"/>
<path d="M45.8382 75.2305C46.1027 75.5072 46.2503 75.8753 46.2503 76.2581C46.2503 76.6409 46.1027 77.0089 45.8382 77.2857C45.2974 77.8265 44.5402 77.886 43.6045 77.2045L45.8382 75.2305Z" fill="#F1CF99"/>
<path d="M42.799 31.7945C39.6152 31.7039 36.5954 30.3619 34.3943 28.0596C32.1933 25.7574 30.9884 22.6803 31.041 19.4956C31.187 12.8378 36.6117 7.42928 43.0045 7.56449C49.8949 7.71052 55.1304 13.0811 55.0114 19.8742C54.9658 23.0722 53.6552 26.1219 51.3664 28.3559C49.0777 30.5899 45.9972 31.8263 42.799 31.7945Z" fill="white"/>
<path d="M47.9639 25.9213C47.7918 25.9227 47.6213 25.8893 47.4624 25.8234C47.3035 25.7574 47.1595 25.6601 47.039 25.5373L37.1631 15.6668C36.9328 15.4186 36.8076 15.0907 36.814 14.7521C36.8203 14.4135 36.9576 14.0906 37.1971 13.8511C37.4365 13.6117 37.7595 13.4743 38.0981 13.468C38.4367 13.4617 38.7645 13.5868 39.0128 13.8171L48.8833 23.693C49.0051 23.8137 49.1018 23.9574 49.1678 24.1156C49.2338 24.2739 49.2678 24.4437 49.2678 24.6152C49.2678 24.7867 49.2338 24.9565 49.1678 25.1147C49.1018 25.273 49.0051 25.4166 48.8833 25.5373C48.7634 25.6595 48.6203 25.7564 48.4624 25.8223C48.3045 25.8883 48.135 25.9219 47.9639 25.9213Z" fill="#72727F"/>
<path d="M38.0881 25.9209C37.9161 25.9223 37.7455 25.8889 37.5866 25.823C37.4277 25.757 37.2838 25.6597 37.1633 25.5369C37.0421 25.4159 36.946 25.2721 36.8804 25.1139C36.8148 24.9557 36.781 24.786 36.781 24.6148C36.781 24.4435 36.8148 24.2739 36.8804 24.1156C36.946 23.9574 37.0421 23.8137 37.1633 23.6926L47.0392 13.8167C47.1606 13.6956 47.3047 13.5996 47.4633 13.5342C47.6218 13.4688 47.7917 13.4353 47.9632 13.4355C48.1347 13.4358 48.3045 13.4698 48.4629 13.5357C48.6212 13.6016 48.765 13.698 48.8861 13.8194C49.0072 13.9409 49.1032 14.085 49.1686 14.2436C49.234 14.4021 49.2676 14.572 49.2673 14.7435C49.2671 14.915 49.233 15.0848 49.1672 15.2431C49.1013 15.4015 49.0049 15.5453 48.8834 15.6664L39.0129 25.5369C38.8924 25.6597 38.7485 25.757 38.5896 25.823C38.4307 25.8889 38.2601 25.9223 38.0881 25.9209Z" fill="#72727F"/>
</svg>
