<svg width="86" height="86" viewBox="0 0 86 86" fill="none" xmlns="http://www.w3.org/2000/svg">
<g clip-path="url(#clip0_101_3)">
<path d="M33.9155 74.5974H9.93839C9.55924 74.5974 9.19563 74.4449 8.92753 74.1733C8.65943 73.9018 8.50879 73.5336 8.50879 73.1496C8.50879 72.7656 8.65943 72.3972 8.92753 72.1257C9.19563 71.8542 9.55924 71.7017 9.93839 71.7017H33.9155C34.2947 71.7017 34.6583 71.8542 34.9264 72.1257C35.1945 72.3972 35.3451 72.7656 35.3451 73.1496C35.3451 73.5336 35.1945 73.9018 34.9264 74.1733C34.6583 74.4449 34.2947 74.5974 33.9155 74.5974Z" fill="#72727F"/>
<path d="M51.9809 81.6824H25.5834C25.2043 81.6824 24.8406 81.5298 24.5725 81.2583C24.3044 80.9868 24.1538 80.6185 24.1538 80.2345C24.1538 79.8505 24.3044 79.4822 24.5725 79.2107C24.8406 78.9392 25.2043 78.7866 25.5834 78.7866H51.9809C52.36 78.7866 52.7236 78.9392 52.9917 79.2107C53.2598 79.4822 53.4105 79.8505 53.4105 80.2345C53.4105 80.6185 53.2598 80.9868 52.9917 81.2583C52.7236 81.5298 52.36 81.6824 51.9809 81.6824Z" fill="#72727F"/>
<path d="M26.0798 19.0497L13.229 49.936L71.8441 74.9517L84.6949 44.0653L26.0798 19.0497Z" fill="#F1CF99"/>
<path d="M71.9296 76.2947C71.7562 76.2947 71.5845 76.2604 71.4242 76.1937L12.7513 51.1825C12.4387 51.0436 12.1932 50.7849 12.0685 50.463C11.9439 50.1412 11.9503 49.7824 12.0864 49.4653L24.9394 18.5818C25.0774 18.2743 25.3276 18.033 25.6376 17.9083C25.7945 17.8418 25.9628 17.8076 26.1329 17.8076C26.303 17.8076 26.4714 17.8418 26.6283 17.9083L85.228 42.9061C85.3826 42.9741 85.5224 43.0724 85.6395 43.1952C85.7566 43.318 85.8486 43.463 85.9103 43.6218C85.9721 43.7807 86.0024 43.9503 85.9994 44.1209C85.9964 44.2916 85.9602 44.46 85.893 44.6166L73.0467 75.5001C72.9037 75.8063 72.652 76.0468 72.3418 76.1735C72.2115 76.2356 72.0724 76.2765 71.9296 76.2947ZM15.0054 49.27L71.238 73.2777L83.087 44.7984L26.8543 20.7974L15.0054 49.27Z" fill="#72727F"/>
<path d="M71.5777 42.3336L36.5827 27.397C35.8506 28.9318 34.5832 30.1376 33.0251 30.7818C31.4669 31.426 29.7283 31.4629 28.1449 30.8853L23.0249 43.1956C24.5388 43.942 25.7263 45.2294 26.3586 46.8098C26.9909 48.3903 27.0232 50.1518 26.4493 51.7549L61.4442 66.6916C62.1752 65.1557 63.4425 63.9489 65.0011 63.3046C66.5596 62.6603 68.2988 62.6241 69.8822 63.2032L75.0087 50.8862C73.4941 50.1423 72.3053 48.8566 71.6717 47.2771C71.0381 45.6977 71.0046 43.9366 71.5777 42.3336Z" fill="#F1CF99"/>
<path d="M61.4434 67.2975C61.3634 67.2989 61.2841 67.2828 61.2107 67.2504L26.2158 52.3137C26.0723 52.2552 25.9572 52.142 25.895 51.9985C25.8329 51.855 25.8287 51.6926 25.8833 51.546C26.4134 50.0853 26.3869 48.477 25.8091 47.0351C25.2312 45.5931 24.1435 44.4211 22.7582 43.7477C22.6193 43.6791 22.5116 43.5592 22.4572 43.4127C22.4028 43.2661 22.4058 43.1041 22.4656 42.9598L27.5922 30.6428C27.6526 30.4996 27.7647 30.3851 27.9055 30.3226C28.0462 30.2601 28.2052 30.2541 28.3502 30.306C29.7899 30.8347 31.3721 30.8029 32.79 30.2168C34.2078 29.6307 35.3602 28.5321 36.0234 27.1342C36.0899 26.994 36.207 26.8851 36.3506 26.8299C36.4942 26.7748 36.6532 26.7776 36.7948 26.8379L71.7897 41.7745C71.9337 41.8345 72.0489 41.9489 72.111 42.0935C72.173 42.2381 72.1771 42.4015 72.1222 42.549C71.5925 44.0087 71.6192 45.616 72.1971 47.0568C72.775 48.4977 73.8625 49.6685 75.2473 50.3406C75.3862 50.4092 75.4938 50.5291 75.5482 50.6756C75.6026 50.8221 75.5997 50.9842 75.5399 51.1285L70.4133 63.4455C70.3528 63.5887 70.2408 63.7031 70.1 63.7657C69.9592 63.8282 69.8002 63.8341 69.6552 63.7822C68.2133 63.2471 66.6261 63.2763 65.2043 63.8642C63.7826 64.4522 62.6288 65.5564 61.9688 66.9608C61.9189 67.0594 61.8439 67.1426 61.7515 67.2018C61.6591 67.261 61.5527 67.2941 61.4434 67.2975ZM27.1866 51.3777L61.1708 65.8833C61.9888 64.447 63.2555 63.3273 64.7712 62.7006C66.2869 62.0739 67.9655 61.9758 69.5423 62.4219L74.2366 51.1352C72.819 50.3051 71.7152 49.02 71.0999 47.4832C70.4845 45.9464 70.3926 44.2456 70.8388 42.65L36.8546 28.1443C36.0403 29.5826 34.775 30.7042 33.2597 31.3313C31.7443 31.9584 30.0656 32.055 28.4899 31.6058L23.7888 42.8924C25.2055 43.7234 26.3086 45.0086 26.9239 46.5452C27.5392 48.0817 27.6316 49.782 27.1866 51.3777Z" fill="#72727F"/>
<path d="M57.9993 50.8794C57.275 52.6178 56.058 54.0998 54.5023 55.1379C52.9465 56.176 51.1218 56.7237 49.2588 56.7117C47.3957 56.6998 45.578 56.1287 44.0354 55.0707C42.4928 54.0126 41.2944 52.5152 40.5919 50.7675C39.8895 49.0199 39.7143 47.1006 40.0886 45.2522C40.463 43.4037 41.37 41.7092 42.695 40.3827C44.02 39.0563 45.7036 38.1575 47.5329 37.7999C49.3622 37.4423 51.2552 37.642 52.9724 38.3738C55.2761 39.3573 57.0998 41.2273 58.0425 43.5724C58.9851 45.9175 58.9696 48.5458 57.9993 50.8794Z" fill="#95D6E6"/>
<path d="M49.3231 57.4857C47.1335 57.4849 45.0024 56.77 43.2453 55.4469C41.4882 54.1238 40.1985 52.2629 39.567 50.1396C38.9355 48.0163 38.9958 45.7435 39.739 43.6577C40.4823 41.5718 41.8689 39.7837 43.6937 38.5582C45.5185 37.3327 47.6844 36.7348 49.8708 36.8531C52.0572 36.9714 54.1478 37.7995 55.8333 39.215C57.5188 40.6304 58.7095 42.5579 59.2291 44.7121C59.7488 46.8662 59.5697 49.1326 58.7184 51.1757C57.9396 53.0474 56.6325 54.6445 54.9612 55.767C53.2898 56.8895 51.3285 57.4874 49.3231 57.4857ZM49.3231 38.394C47.7623 38.3986 46.2319 38.8311 44.8943 39.6456C43.5567 40.4601 42.4618 41.6261 41.7258 43.02C40.9898 44.4139 40.6401 45.9836 40.7139 47.5626C40.7877 49.1415 41.2823 50.6707 42.145 51.988C43.0078 53.3052 44.2065 54.3613 45.6141 55.0441C47.0217 55.727 48.5856 56.0111 50.1398 55.8663C51.6939 55.7216 53.1804 55.1534 54.4415 54.222C55.7025 53.2906 56.691 52.0308 57.3021 50.5763C57.8623 49.2431 58.0869 47.7898 57.9559 46.3469C57.8249 44.904 57.3424 43.5166 56.5515 42.3091C55.7606 41.1017 54.6863 40.1119 53.4247 39.4286C52.1631 38.7453 50.7537 38.3898 49.3231 38.394Z" fill="#72727F"/>
<path d="M19.5996 13.8499L12.1777 46.5127L74.1641 60.9603L81.5859 28.2974L19.5996 13.8499Z" fill="#F1CF99"/>
<path d="M74.1978 62.2874C74.0994 62.2866 74.0013 62.2753 73.9052 62.2538L11.921 47.802C11.7554 47.7651 11.5988 47.6948 11.4606 47.5953C11.3223 47.4958 11.2054 47.3691 11.1165 47.2228C11.0257 47.077 10.9643 46.9145 10.9357 46.7446C10.9072 46.5747 10.9121 46.4008 10.9503 46.2329L18.3708 13.5715C18.4573 13.2393 18.666 12.9532 18.954 12.7717C19.242 12.5902 19.5876 12.527 19.9201 12.5951L81.9043 27.0401C82.0699 27.0782 82.2265 27.1491 82.3651 27.2487C82.5036 27.3483 82.6214 27.4746 82.7116 27.6204C82.8018 27.7662 82.8626 27.9286 82.8907 28.0983C82.9188 28.268 82.9134 28.4416 82.875 28.6092L75.4545 61.2705C75.3742 61.6064 75.1694 61.8981 74.8826 62.0854C74.6778 62.2169 74.4404 62.287 74.1978 62.2874ZM13.7562 45.546L73.2603 59.4119L80.1024 29.2961L20.6315 15.4302L13.7562 45.546Z" fill="#72727F"/>
<path d="M68.3456 28.8586L31.3691 20.2319C30.9079 21.8707 29.8639 23.2785 28.4384 24.1838C27.0128 25.0891 25.3069 25.4278 23.6494 25.1345L20.6904 38.1586C22.3075 38.63 23.695 39.6912 24.5852 41.1375C25.4754 42.5837 25.8052 44.3126 25.5111 45.9906L62.5208 54.6173C62.982 52.978 64.0258 51.5696 65.4511 50.6632C66.8764 49.7568 68.5824 49.4165 70.2406 49.7079L73.2062 36.6838C71.5822 36.222 70.1856 35.1655 69.2874 33.7195C68.3892 32.2735 68.0536 30.5411 68.3456 28.8586Z" fill="#F1CF99"/>
<path d="M62.4882 55.2232C62.4441 55.2296 62.3993 55.2296 62.3552 55.2232L25.3455 46.5966C25.2005 46.5613 25.0736 46.4731 24.9889 46.3488C24.9042 46.2245 24.8678 46.0729 24.8867 45.9232C25.1629 44.3927 24.8655 42.813 24.0526 41.4928C23.2398 40.1727 21.9701 39.2071 20.4916 38.7848C20.3434 38.7421 20.2168 38.6438 20.1378 38.5099C20.0587 38.376 20.0331 38.2167 20.066 38.0643L23.0316 25.0401C23.0636 24.8918 23.1502 24.7613 23.2736 24.675C23.397 24.5888 23.5481 24.5532 23.6965 24.5755C25.2081 24.849 26.7662 24.5426 28.0668 23.7159C29.3674 22.8891 30.3174 21.6014 30.7314 20.1039C30.7736 19.9538 30.8706 19.8257 31.0028 19.7456C31.135 19.6655 31.2924 19.6395 31.4429 19.6729L68.4525 28.3062C68.5983 28.3402 68.7262 28.4281 68.8111 28.5527C68.896 28.6774 68.9317 28.8297 68.9113 28.9797C68.6369 30.5091 68.9352 32.0872 69.7479 33.4058C70.5606 34.7245 71.8293 35.6891 73.3064 36.1113C73.456 36.154 73.5837 36.2533 73.6629 36.3887C73.7422 36.5241 73.7669 36.6852 73.732 36.8386L70.7731 49.8627C70.737 50.0088 70.6496 50.1365 70.5272 50.222C70.4048 50.3076 70.2559 50.345 70.1082 50.3274C68.5973 50.052 67.0393 50.3568 65.7385 51.1824C64.4376 52.008 63.4874 53.2951 63.0733 54.7922C63.0356 54.9189 62.958 55.0296 62.8523 55.1074C62.7467 55.1853 62.6188 55.2259 62.4882 55.2232ZM26.1567 45.5191L62.0626 53.8966C62.6244 52.3388 63.6822 51.0148 65.0691 50.1333C66.456 49.2517 68.0933 48.8627 69.7226 49.0277L72.4354 37.0945C70.898 36.5224 69.5927 35.4478 68.7257 34.0404C67.8587 32.633 67.4795 30.9732 67.648 29.3231L31.7421 20.9524C31.1754 22.5101 30.1114 23.8316 28.719 24.7075C27.3267 25.5834 25.6854 25.9635 24.0556 25.7876L21.3959 37.7545C22.9264 38.3319 24.2244 39.4077 25.0861 40.813C25.9477 42.2184 26.3243 43.8736 26.1567 45.5191Z" fill="#72727F"/>
<path d="M49.9991 46.6447C54.9722 45.0933 57.7619 39.7526 56.23 34.7159C54.6982 29.6793 49.425 26.8539 44.4519 28.4053C39.4789 29.9567 36.6893 35.2974 38.2211 40.334C39.7529 45.3707 45.0261 48.1961 49.9991 46.6447Z" fill="#E5AD58"/>
<path d="M47.2338 47.8153C46.4641 47.814 45.6969 47.726 44.9465 47.5526C42.4126 46.962 40.1978 45.4118 38.7566 43.2201C37.3153 41.0283 36.7568 38.361 37.1956 35.7654C37.6343 33.1698 39.037 30.8426 41.116 29.2611C43.1951 27.6796 45.7927 26.9638 48.3763 27.2605C50.9599 27.5571 53.3335 28.8438 55.0102 30.8565C56.6869 32.8691 57.5396 35.4553 57.3934 38.0846C57.2473 40.7138 56.1133 43.1867 54.2242 44.9961C52.335 46.8055 49.8339 47.8142 47.2338 47.8153ZM47.2338 28.7235C45.61 28.731 44.0212 29.2015 42.6493 30.0812C41.2774 30.961 40.1778 32.2143 39.4766 33.6976C38.7754 35.1809 38.5009 36.8342 38.6846 38.4682C38.8682 40.1022 39.5027 41.6508 40.5151 42.9365C41.5275 44.2223 42.877 45.1932 44.4091 45.7381C45.9411 46.283 47.5937 46.3798 49.1776 46.0175C50.7615 45.6552 52.2125 44.8483 53.3646 43.6894C54.5167 42.5305 55.3231 41.0664 55.6916 39.4647C55.9495 38.3419 55.986 37.1786 55.7988 36.0415C55.6117 34.9043 55.2046 33.8159 54.601 32.8385C53.9974 31.8612 53.2092 31.0141 52.2815 30.3461C51.3539 29.6781 50.3051 29.2022 49.1954 28.9458C48.5451 28.7972 47.8804 28.7227 47.2138 28.7235H47.2338Z" fill="#72727F"/>
<path d="M71.0312 8.87109H5.17041V44.6976H71.0312V8.87109Z" fill="#F1CF99"/>
<path d="M71.0315 45.9904H5.17077C4.82866 45.9904 4.50061 45.8527 4.25869 45.6077C4.01678 45.3627 3.88086 45.0304 3.88086 44.6839V8.87091C3.88086 8.52442 4.01678 8.19211 4.25869 7.9471C4.50061 7.70209 4.82866 7.56445 5.17077 7.56445H71.0315C71.3736 7.56445 71.7017 7.70209 71.9436 7.9471C72.1855 8.19211 72.3214 8.52442 72.3214 8.87091V44.6906C72.3197 45.036 72.183 45.3665 71.9413 45.6101C71.6996 45.8536 71.3725 45.9904 71.0315 45.9904ZM6.46077 43.3774H69.7415V10.1774H6.46077V43.3774Z" fill="#72727F"/>
<path d="M57.7596 12.6558H18.4361C18.3734 14.4454 17.6598 16.1485 16.4324 17.4376C15.205 18.7266 13.5505 19.5108 11.7869 19.6392V33.9227C13.5505 34.0511 15.205 34.8352 16.4324 36.1243C17.6598 37.4134 18.3734 39.1165 18.4361 40.9061H57.7596C57.8223 39.1165 58.536 37.4134 59.7634 36.1243C60.9908 34.8352 62.6452 34.0511 64.4089 33.9227V19.6392C62.6452 19.5108 60.9908 18.7266 59.7634 17.4376C58.536 16.1485 57.8223 14.4454 57.7596 12.6558Z" fill="#F1CF99"/>
<path d="M57.7602 41.5455H18.4366C18.2712 41.5464 18.1114 41.4847 17.9884 41.3727C17.8655 41.2606 17.7883 41.1061 17.7717 40.9394C17.7241 39.3033 17.0767 37.7438 15.9556 36.5648C14.8345 35.3858 13.3201 34.6718 11.7076 34.5621C11.5453 34.5551 11.3921 34.4844 11.2804 34.365C11.1687 34.2456 11.1073 34.0868 11.1092 33.9223V19.6389C11.1164 19.4772 11.1808 19.3236 11.2907 19.2061C11.4006 19.0886 11.5486 19.0151 11.7076 18.9991C13.3201 18.8894 14.8345 18.1754 15.9556 16.9964C17.0767 15.8174 17.7241 14.2579 17.7717 12.6217C17.7883 12.455 17.8655 12.3006 17.9884 12.1885C18.1114 12.0764 18.2712 12.0148 18.4366 12.0156H57.7602C57.9256 12.0148 58.0854 12.0764 58.2084 12.1885C58.3313 12.3006 58.4086 12.455 58.4251 12.6217C58.4727 14.2579 59.1201 15.8174 60.2412 16.9964C61.3623 18.1754 62.8768 18.8894 64.4893 18.9991C64.6495 19.0136 64.799 19.0864 64.9103 19.204C65.0216 19.3217 65.0869 19.4761 65.0943 19.6389V33.9223C65.0869 34.085 65.0216 34.2395 64.9103 34.3571C64.799 34.4748 64.6495 34.5476 64.4893 34.5621C62.8768 34.6718 61.3623 35.3858 60.2412 36.5648C59.1201 37.7438 58.4727 39.3033 58.4251 40.9394C58.4217 41.0238 58.4018 41.1066 58.3663 41.183C58.3309 41.2594 58.2807 41.3279 58.2188 41.3844C58.1568 41.4408 58.0843 41.4842 58.0055 41.5119C57.9268 41.5395 57.8434 41.551 57.7602 41.5455ZM19.0218 40.266H57.1817C57.3667 38.5315 58.1168 36.9087 59.3136 35.6539C60.5105 34.3991 62.0859 33.5837 63.7911 33.3364V20.2247C62.0859 19.9775 60.5105 19.1621 59.3136 17.9073C58.1168 16.6525 57.3667 15.0297 57.1817 13.2952H19.0218C18.8337 15.0352 18.0774 16.6619 16.8729 17.9172C15.6683 19.1725 14.0846 19.9846 12.3725 20.2247V33.3364C14.0846 33.5765 15.6683 34.3886 16.8729 35.644C18.0774 36.8993 18.8337 38.5259 19.0218 40.266Z" fill="#72727F"/>
<path d="M38.4376 36.9865C43.8248 36.9865 48.1919 32.4187 48.1919 26.784C48.1919 21.1493 43.8248 16.5815 38.4376 16.5815C33.0503 16.5815 28.6831 21.1493 28.6831 26.784C28.6831 32.4187 33.0503 36.9865 38.4376 36.9865Z" fill="#E5AD58"/>
<path d="M38.4363 37.7945C36.2721 37.8589 34.1382 37.2676 32.3076 36.0965C30.4771 34.9254 29.0333 33.2277 28.1609 31.2206C27.2886 29.2136 27.0275 26.9886 27.411 24.8304C27.7946 22.6722 28.8053 20.679 30.3138 19.106C31.8224 17.5329 33.7601 16.4516 35.8789 16.0004C37.9978 15.5492 40.2013 15.7486 42.2076 16.5732C44.2139 17.3978 45.9315 18.81 47.1407 20.629C48.35 22.448 48.9957 24.5911 48.9953 26.784C49.0327 29.661 47.9422 32.4356 45.9628 34.4995C43.9835 36.5635 41.2769 37.7484 38.4363 37.7945ZM38.4363 17.3896C36.5818 17.3185 34.7486 17.8103 33.1721 18.8021C31.5957 19.7939 30.3478 21.2402 29.5889 22.9555C28.83 24.6708 28.5946 26.5766 28.913 28.4283C29.2314 30.2801 30.089 31.9932 31.3757 33.3476C32.6625 34.7021 34.3196 35.6361 36.1343 36.0298C37.9491 36.4234 39.8385 36.2588 41.5601 35.5569C43.2817 34.855 44.7569 33.6479 45.7962 32.0907C46.8355 30.5335 47.3915 28.6972 47.3928 26.8176C47.4166 25.6028 47.2038 24.3951 46.7665 23.2636C46.3291 22.1322 45.6758 21.0991 44.844 20.2235C44.0122 19.3479 43.0181 18.6469 41.9187 18.1606C40.8192 17.6744 39.6359 17.4124 38.4363 17.3896Z" fill="#72727F"/>
</g>
<defs>
<clipPath id="clip0_101_3">
<rect width="85" height="86" fill="white" transform="translate(0.5)"/>
</clipPath>
</defs>
</svg>
