<svg width="86" height="86" viewBox="0 0 86 86" fill="none" xmlns="http://www.w3.org/2000/svg">
<path d="M27.9847 71.3661H3.37501C3.00231 71.3418 2.65285 71.1766 2.39748 70.904C2.14211 70.6315 2 70.2719 2 69.8984C2 69.5249 2.14211 69.1655 2.39748 68.8929C2.65285 68.6204 3.00231 68.4551 3.37501 68.4308H27.9847C28.1855 68.4178 28.3868 68.446 28.5762 68.5138C28.7657 68.5817 28.9392 68.6876 29.086 68.8252C29.2328 68.9628 29.3498 69.129 29.4298 69.3136C29.5099 69.4982 29.5511 69.6972 29.5511 69.8984C29.5511 70.0996 29.5099 70.2987 29.4298 70.4833C29.3498 70.6679 29.2328 70.8342 29.086 70.9717C28.9392 71.1093 28.7657 71.2153 28.5762 71.2831C28.3868 71.3509 28.1855 71.3792 27.9847 71.3661Z" fill="#72727F"/>
<path d="M46.5557 78.514H19.4595C19.2587 78.5271 19.0574 78.4989 18.8679 78.431C18.6785 78.3632 18.5051 78.2572 18.3583 78.1197C18.2114 77.9821 18.0943 77.8158 18.0143 77.6312C17.9343 77.4466 17.8931 77.2476 17.8931 77.0464C17.8931 76.8452 17.9343 76.6462 18.0143 76.4615C18.0943 76.2769 18.2114 76.1107 18.3583 75.9731C18.5051 75.8356 18.6785 75.7296 18.8679 75.6618C19.0574 75.5939 19.2587 75.5657 19.4595 75.5788H46.5557C46.7564 75.5657 46.9578 75.5939 47.1472 75.6618C47.3366 75.7296 47.5101 75.8356 47.6569 75.9731C47.8037 76.1107 47.9207 76.2769 48.0007 76.4615C48.0808 76.6462 48.1221 76.8452 48.1221 77.0464C48.1221 77.2476 48.0808 77.4466 48.0007 77.6312C47.9207 77.8158 47.8037 77.9821 47.6569 78.1197C47.5101 78.2572 47.3366 78.3632 47.1472 78.431C46.9578 78.4989 46.7564 78.5271 46.5557 78.514Z" fill="#72727F"/>
<path d="M40.7403 34.8162L42.6099 32.741C43.3704 31.899 43.9576 30.9154 44.3379 29.8464C44.7181 28.7774 44.884 27.644 44.8262 26.5109C44.7683 25.3777 44.4878 24.2671 44.0005 23.2424C43.5133 22.2177 42.829 21.2991 41.9867 20.539L38.8146 17.6723C37.1134 16.1379 34.8726 15.3417 32.5846 15.4585C30.2966 15.5754 28.1487 16.5958 26.6126 18.2955L24.743 20.3707C24.4944 20.6467 24.2634 20.9382 24.0513 21.2432L23.9641 21.3429C22.188 22.8572 20.6799 26.5465 21.5586 31.0646C23.5704 41.3377 28.8556 50.6828 36.6229 57.7008C44.3903 64.7189 54.2219 69.0322 64.6458 69.9951C67.2221 70.2841 69.8231 69.7403 72.0679 68.4434C72.8586 67.993 73.5718 67.4186 74.1805 66.7421L76.0501 64.6669C77.5844 62.9657 78.3807 60.7249 78.2639 58.4369C78.147 56.1489 77.1266 54.0009 75.4269 52.4649L72.2549 49.5982C70.5547 48.0642 68.3149 47.2681 66.0279 47.385C63.741 47.5018 61.5941 48.5221 60.0591 50.2214L58.1896 52.2966C57.3942 53.177 56.7895 54.2124 56.4134 55.3378L56.2452 55.8363L55.7466 55.6431C47.3685 52.3452 40.5115 46.0567 36.5026 37.9945L36.2346 37.4647L36.8079 37.2903C38.3211 36.8425 39.6817 35.9865 40.7403 34.8162Z" fill="#F1CF99"/>
<path d="M65.9438 71.3908C65.4765 71.3908 65.0028 71.3908 64.5292 71.3223C53.8202 70.3272 43.7216 65.8903 35.7453 58.6757C27.769 51.461 22.3441 41.8569 20.2829 31.3012C19.3169 26.3156 20.9622 22.24 23.0499 20.3954C23.2761 20.0734 23.5216 19.7654 23.7852 19.4731L25.6547 17.3916C27.4286 15.4343 29.9066 14.2607 32.5449 14.1287C35.1831 13.9967 37.766 14.9169 39.7264 16.6874L42.8984 19.5541C44.8558 21.3279 46.0293 23.806 46.1613 26.4442C46.2933 29.0825 45.3731 31.6653 43.6026 33.6257L41.733 35.7009L40.7484 34.8159L41.733 35.7009C40.7394 36.8005 39.5131 37.6649 38.1434 38.231C41.927 45.3576 48.0524 50.9614 55.4867 54.0974C55.915 53.1127 56.5024 52.2053 57.2255 51.4114L59.095 49.3362C60.868 47.3779 63.3456 46.2033 65.9839 46.0701C68.6221 45.9369 71.2054 46.8561 73.1666 48.6258L76.3387 51.4987C78.2942 53.2723 79.4664 55.7491 79.5984 58.3858C79.7305 61.0225 78.8114 63.604 77.0429 65.564L75.1733 67.6455C74.4687 68.4189 73.6489 69.079 72.7428 69.6023C70.6834 70.8107 68.3313 71.4294 65.9438 71.3908ZM33.0457 16.7622C32.0243 16.7632 31.0143 16.9777 30.0806 17.3919C29.147 17.8062 28.3102 18.4111 27.624 19.1677L25.7545 21.2492C25.5447 21.4808 25.3511 21.7265 25.1749 21.9845C25.1427 22.0306 25.1073 22.0743 25.069 22.1154L24.9817 22.2151C24.9433 22.2577 24.9016 22.2973 24.8571 22.3335C23.6107 23.3992 22.0652 26.5275 22.8878 30.8026C24.8399 40.7954 29.9763 49.8872 37.528 56.7165C45.0797 63.5458 54.6403 67.7453 64.7785 68.6862C67.071 68.9506 69.388 68.4745 71.3905 67.3276C72.0689 66.9387 72.6828 66.4468 73.2102 65.8694L75.0798 63.7879C76.3777 62.3486 77.052 60.4536 76.955 58.518C76.858 56.5823 75.9977 54.7641 74.5625 53.4617L71.3905 50.5951C70.6793 49.9494 69.8477 49.4504 68.9432 49.1269C68.0388 48.8033 67.0794 48.6615 66.12 48.7095C65.1607 48.7576 64.2202 48.9945 63.3526 49.4069C62.485 49.8192 61.7074 50.3988 61.0643 51.1123L59.1948 53.1875C58.5216 53.9335 58.0084 54.8094 57.6866 55.7613L57.5183 56.2598C57.4611 56.4304 57.3697 56.5874 57.2497 56.7213C57.1297 56.8553 56.9836 56.9633 56.8204 57.0388C56.6564 57.1111 56.4792 57.1484 56.3 57.1484C56.1208 57.1484 55.9437 57.1111 55.7797 57.0388L55.2873 56.8456C46.6054 53.427 39.4999 46.9098 35.3453 38.5551L35.0836 38.0254C34.9962 37.8522 34.9478 37.6619 34.9418 37.468C34.9359 37.2741 34.9725 37.0812 35.0492 36.903C35.1258 36.7247 35.2406 36.5654 35.3854 36.4364C35.5303 36.3073 35.7017 36.2115 35.8875 36.1558L36.4609 35.9875C37.7332 35.5989 38.8766 34.8732 39.77 33.8874L41.6395 31.8122C42.9409 30.3733 43.6174 28.4765 43.5204 26.5388C43.4234 24.6012 42.5608 22.7815 41.1223 21.4797L37.9502 18.6193C36.6029 17.4124 34.8545 16.7503 33.0457 16.7622Z" fill="#72727F"/>
<path d="M51.2854 9.90111C51.287 10.4355 51.5005 10.9475 51.879 11.3248C52.2575 11.7021 52.7701 11.914 53.3045 11.914C60.0868 11.9272 66.5873 14.6286 71.3813 19.4261C76.1753 24.2236 78.8719 30.7261 78.8802 37.5083C78.8802 38.0422 79.0922 38.5541 79.4697 38.9316C79.8472 39.3091 80.3592 39.5212 80.8931 39.5212C81.4269 39.5212 81.9389 39.3091 82.3164 38.9316C82.6939 38.5541 82.9059 38.0422 82.9059 37.5083C82.8977 29.6621 79.7806 22.1388 74.2372 16.586C68.6937 11.0332 61.1757 7.90342 53.3295 7.88199C53.0622 7.87869 52.797 7.92848 52.5491 8.02847C52.3013 8.12846 52.0758 8.27666 51.8856 8.46448C51.6955 8.6523 51.5445 8.87601 51.4415 9.12262C51.3385 9.36923 51.2854 9.63385 51.2854 9.90111Z" fill="#E5AD58"/>
<path d="M80.9128 40.406C80.1448 40.4044 79.4086 40.0985 78.8655 39.5554C78.3225 39.0123 78.0166 38.2762 78.015 37.5082C78.0084 30.9606 75.4066 24.6826 70.7797 20.0499C66.1528 15.4171 59.8781 12.8074 53.3305 12.7926C52.9391 12.8107 52.548 12.7493 52.181 12.612C51.814 12.4748 51.4786 12.2645 51.1952 11.9939C50.9117 11.7233 50.6861 11.398 50.532 11.0377C50.3778 10.6775 50.2983 10.2897 50.2983 9.89784C50.2983 9.50598 50.3778 9.11819 50.532 8.75792C50.6861 8.39766 50.9117 8.07239 51.1952 7.8018C51.4786 7.53122 51.814 7.32091 52.181 7.18364C52.548 7.04636 52.9391 6.98495 53.3305 7.00312C61.4292 7.00312 69.1962 10.2203 74.9229 15.947C80.6495 21.6736 83.8667 29.4406 83.8667 37.5393C83.8619 37.9218 83.7815 38.2995 83.6302 38.6508C83.479 39.0021 83.2598 39.32 82.9853 39.5864C82.7109 39.8528 82.3865 40.0623 82.0309 40.2029C81.6752 40.3436 81.2952 40.4126 80.9128 40.406ZM53.3305 8.76675C53.1749 8.75519 53.0186 8.77585 52.8713 8.82745C52.7241 8.87906 52.5891 8.9605 52.4748 9.06666C52.3604 9.17283 52.2692 9.30143 52.2069 9.44444C52.1445 9.58746 52.1123 9.74181 52.1123 9.89784C52.1123 10.0539 52.1445 10.2082 52.2069 10.3512C52.2692 10.4942 52.3604 10.6228 52.4748 10.729C52.5891 10.8352 52.7241 10.9166 52.8713 10.9682C53.0186 11.0198 53.1749 11.0405 53.3305 11.0289C60.3507 11.0372 67.0811 13.8296 72.0451 18.7936C77.0091 23.7577 79.8015 30.488 79.8098 37.5082C79.8098 37.6563 79.839 37.803 79.8956 37.9398C79.9523 38.0767 80.0354 38.201 80.1401 38.3057C80.2449 38.4105 80.3692 38.4936 80.5061 38.5503C80.6429 38.607 80.7896 38.6361 80.9378 38.6361C81.0859 38.6361 81.2326 38.607 81.3694 38.5503C81.5063 38.4936 81.6306 38.4105 81.7353 38.3057C81.8401 38.201 81.9231 38.0767 81.9798 37.9398C82.0365 37.803 82.0657 37.6563 82.0657 37.5082C82.0575 29.8891 79.0276 22.5843 73.6406 17.1962C68.2537 11.8081 60.9496 8.77665 53.3305 8.76675Z" fill="#72727F"/>
<path d="M50.9619 19.7473C50.9619 20.2811 51.174 20.7931 51.5515 21.1706C51.929 21.5481 52.441 21.7601 52.9749 21.7601C57.2359 21.7651 61.321 23.46 64.334 26.473C67.347 29.486 69.0419 33.5711 69.0468 37.8322C69.0468 38.366 69.2589 38.878 69.6364 39.2555C70.0139 39.633 70.5259 39.8451 71.0597 39.8451C71.5936 39.8451 72.1056 39.633 72.4831 39.2555C72.8606 38.878 73.0727 38.366 73.0727 37.8322C73.0661 32.5039 70.9465 27.3958 67.1789 23.6281C63.4112 19.8605 58.3031 17.741 52.9749 17.7344C52.441 17.7344 51.929 17.9464 51.5515 18.3239C51.174 18.7014 50.9619 19.2134 50.9619 19.7473Z" fill="#E5AD58"/>
<path d="M71.059 40.7051C70.291 40.7035 69.5549 40.3976 69.0118 39.8545C68.4687 39.3114 68.1629 38.5753 68.1613 37.8073C68.1547 33.7826 66.5521 29.9248 63.705 27.0801C60.8579 24.2354 56.9989 22.636 52.9742 22.6327C52.2297 22.5981 51.5271 22.278 51.0125 21.739C50.4979 21.1999 50.2107 20.4832 50.2107 19.7379C50.2107 18.9927 50.4979 18.276 51.0125 17.737C51.5271 17.1979 52.2297 16.8778 52.9742 16.8433C58.5366 16.8482 63.8697 19.0596 67.8035 22.9922C71.7373 26.9248 73.9503 32.2574 73.9569 37.8197C73.9519 38.5856 73.6447 39.3185 73.102 39.859C72.5592 40.3994 71.8249 40.7035 71.059 40.7051ZM52.9866 18.5944C52.7011 18.6156 52.4343 18.744 52.2395 18.9537C52.0447 19.1635 51.9364 19.4392 51.9364 19.7255C51.9364 20.0118 52.0447 20.2874 52.2395 20.4972C52.4343 20.707 52.7011 20.8354 52.9866 20.8566C57.4813 20.8615 61.7905 22.6488 64.9693 25.8264C68.1481 29.004 69.937 33.3126 69.9436 37.8073C69.9436 38.1064 70.0624 38.3934 70.274 38.6049C70.4855 38.8164 70.7724 38.9352 71.0715 38.9352C71.3707 38.9352 71.6576 38.8164 71.8691 38.6049C72.0807 38.3934 72.1995 38.1064 72.1995 37.8073C72.188 32.7154 70.1575 27.8359 66.5535 24.2389C62.9495 20.6419 58.0661 18.621 52.9742 18.6193L52.9866 18.5944Z" fill="#72727F"/>
</svg>
