<?xml version="1.0" encoding="utf-8"?><svg viewBox="0 0 28 28" xmlns="http://www.w3.org/2000/svg" xmlns:xlink="http://www.w3.org/1999/xlink"><style>:root>svg{display:none}:root>svg:target{display:block}</style><svg fill="none" viewBox="0 0 24 24" id="cross-end-form" xmlns="http://www.w3.org/2000/svg"><path d="M22 2L2 22M2 2l20 20"/></svg><svg fill="none" viewBox="0 0 16 28" id="facebook" xmlns="http://www.w3.org/2000/svg"><path d="M12.308 5.478h3.076c.34 0 .616-.272.616-.608V.769a.61.61 0 00-.57-.607A72.235 72.235 0 0011.165 0c-3.78 0-6.241 2.24-6.241 6.311v4.037H.615a.612.612 0 00-.615.608v4.261c0 .336.276.61.615.61h4.308V27.39c0 .336.276.609.615.609h4.308c.34 0 .615-.273.615-.609V15.826h4.445a.613.613 0 00.611-.542l.48-4.26a.611.611 0 00-.613-.676h-4.923V7.304c0-1.008.827-1.826 1.847-1.826z" fill="#3C6382"/></svg><svg fill="none" viewBox="0 0 28 28" id="instagram" xmlns="http://www.w3.org/2000/svg"><path d="M8.273 0C3.71 0 0 3.71 0 8.273v11.454C0 24.29 3.71 28 8.273 28h11.454C24.29 28 28 24.29 28 19.727V8.273C28 3.71 24.29 0 19.727 0H8.273zm13.363 5.09c.7 0 1.273.574 1.273 1.274 0 .7-.573 1.272-1.273 1.272s-1.272-.572-1.272-1.272c0-.7.572-1.273 1.272-1.273zM14 7c3.863 0 7 3.137 7 7s-3.137 7-7 7-7-3.137-7-7 3.137-7 7-7zm0 1.273A5.736 5.736 0 008.273 14 5.736 5.736 0 0014 19.727 5.736 5.736 0 0019.727 14 5.736 5.736 0 0014 8.273z" fill="#3C6382"/></svg><svg fill="none" viewBox="0 0 25 25" id="packages-ok" xmlns="http://www.w3.org/2000/svg"><path d="M12.5 0C5.596 0 0 5.596 0 12.5S5.596 25 12.5 25 25 19.404 25 12.5C24.992 5.6 19.4.008 12.5 0z" fill="#F8B053" fill-opacity=".23"/><path d="M19.716 8.542l-7.13 9.676a1.053 1.053 0 01-1.49.196l-5.092-4.07a1.042 1.042 0 011.302-1.628l4.246 3.397L18.04 7.31a1.042 1.042 0 111.677 1.232z" fill="#F8B053"/></svg></svg>